<svg width="515" height="34" viewBox="0 0 515 34" fill="none" xmlns="http://www.w3.org/2000/svg">
<path d="M270 0.286516H273.528V30.6573H292.214V33.7135H270V0.286516Z" fill="#FF0000"/>
<path d="M312.006 34C308.701 34 305.698 33.2678 302.997 31.8034C300.327 30.3071 298.23 28.2697 296.704 25.691C295.211 23.1124 294.464 20.2154 294.464 17C294.464 13.7846 295.211 10.8876 296.704 8.30899C298.23 5.73034 300.327 3.7088 302.997 2.24438C305.698 0.748127 308.701 0 312.006 0C315.311 0 318.283 0.73221 320.92 2.19663C323.59 3.66105 325.687 5.6985 327.213 8.30899C328.738 10.8876 329.501 13.7846 329.501 17C329.501 20.2154 328.738 23.1283 327.213 25.7388C325.687 28.3174 323.59 30.339 320.92 31.8034C318.283 33.2678 315.311 34 312.006 34ZM312.006 30.8483C314.644 30.8483 317.027 30.2594 319.157 29.0815C321.286 27.8717 322.954 26.2163 324.162 24.1152C325.37 21.9822 325.973 19.6105 325.973 17C325.973 14.3895 325.37 12.0337 324.162 9.93258C322.954 7.79963 321.286 6.1442 319.157 4.96629C317.027 3.75655 314.644 3.15168 312.006 3.15168C309.368 3.15168 306.969 3.75655 304.808 4.96629C302.679 6.1442 300.995 7.79963 299.755 9.93258C298.547 12.0337 297.944 14.3895 297.944 17C297.944 19.6105 298.547 21.9822 299.755 24.1152C300.995 26.2163 302.679 27.8717 304.808 29.0815C306.969 30.2594 309.368 30.8483 312.006 30.8483Z" fill="#FF0000"/>
<path d="M360.909 17H364.293V29.75C362.736 31.1189 360.893 32.1695 358.764 32.9017C356.634 33.6339 354.394 34 352.042 34C348.705 34 345.702 33.2678 343.033 31.8034C340.363 30.339 338.266 28.3174 336.74 25.7388C335.215 23.1283 334.452 20.2154 334.452 17C334.452 13.7846 335.215 10.8876 336.74 8.30899C338.266 5.6985 340.363 3.66105 343.033 2.19663C345.702 0.73221 348.721 0 352.09 0C354.632 0 356.968 0.413858 359.097 1.24157C361.227 2.03745 363.022 3.23127 364.484 4.82303L362.291 7.06742C359.654 4.45693 356.301 3.15168 352.233 3.15168C349.532 3.15168 347.085 3.75655 344.892 4.96629C342.731 6.1442 341.031 7.79963 339.791 9.93258C338.552 12.0337 337.932 14.3895 337.932 17C337.932 19.6105 338.552 21.9663 339.791 24.0674C341.031 26.1685 342.731 27.824 344.892 29.0337C347.053 30.2434 349.484 30.8483 352.185 30.8483C355.618 30.8483 358.525 29.9888 360.909 28.2697V17Z" fill="#FF0000"/>
<path d="M374.277 0.286516H377.805V33.7135H374.277V0.286516Z" fill="#FF0000"/>
<path d="M397.862 34C395.383 34 393 33.6021 390.712 32.8062C388.455 32.0103 386.707 30.9597 385.468 29.6545L386.85 26.9326C388.058 28.1423 389.663 29.1292 391.665 29.8933C393.667 30.6255 395.733 30.9916 397.862 30.9916C400.849 30.9916 403.09 30.4504 404.583 29.368C406.077 28.2537 406.824 26.8212 406.824 25.0702C406.824 23.7331 406.411 22.6667 405.585 21.8708C404.79 21.0749 403.805 20.47 402.629 20.0562C401.453 19.6105 399.817 19.133 397.719 18.6236C395.208 17.9869 393.206 17.382 391.713 16.809C390.219 16.2041 388.932 15.2968 387.851 14.0871C386.803 12.8773 386.278 11.2378 386.278 9.16854C386.278 7.48127 386.723 5.95318 387.613 4.58427C388.503 3.18352 389.869 2.06929 391.713 1.24157C393.556 0.413858 395.844 0 398.577 0C400.484 0 402.343 0.2706 404.154 0.811799C405.998 1.32116 407.587 2.03745 408.921 2.96067L407.73 5.77809C406.331 4.85487 404.838 4.17041 403.249 3.72472C401.66 3.24719 400.103 3.00843 398.577 3.00843C395.653 3.00843 393.445 3.58146 391.951 4.72753C390.489 5.84176 389.758 7.29026 389.758 9.07303C389.758 10.4101 390.155 11.4925 390.95 12.3202C391.776 13.1161 392.793 13.7369 394.001 14.1826C395.24 14.5964 396.893 15.0581 398.958 15.5674C401.406 16.1723 403.376 16.7772 404.87 17.382C406.395 17.9551 407.682 18.8464 408.731 20.0562C409.779 21.2341 410.304 22.8418 410.304 24.8792C410.304 26.5665 409.843 28.1105 408.921 29.5112C408.032 30.8801 406.649 31.9785 404.774 32.8062C402.899 33.6021 400.595 34 397.862 34Z" fill="#FF0000"/>
<path d="M424.007 3.3427H412.281V0.286516H439.262V3.3427H427.535V33.7135H424.007V3.3427Z" fill="#FF0000"/>
<path d="M444.897 0.286516H448.425V33.7135H444.897V0.286516Z" fill="#FF0000"/>
<path d="M473.773 34C470.468 34 467.481 33.2678 464.811 31.8034C462.174 30.339 460.092 28.3174 458.567 25.7388C457.073 23.1283 456.326 20.2154 456.326 17C456.326 13.7846 457.073 10.8876 458.567 8.30899C460.092 5.6985 462.19 3.66105 464.859 2.19663C467.529 0.73221 470.516 0 473.821 0C476.3 0 478.588 0.413858 480.685 1.24157C482.783 2.06929 484.562 3.27903 486.024 4.87079L483.784 7.11517C481.178 4.47285 477.889 3.15168 473.916 3.15168C471.279 3.15168 468.879 3.75655 466.718 4.96629C464.557 6.17603 462.857 7.83146 461.618 9.93258C460.41 12.0337 459.806 14.3895 459.806 17C459.806 19.6105 460.41 21.9663 461.618 24.0674C462.857 26.1685 464.557 27.824 466.718 29.0337C468.879 30.2434 471.279 30.8483 473.916 30.8483C477.921 30.8483 481.21 29.5112 483.784 26.8371L486.024 29.0815C484.562 30.6732 482.767 31.8989 480.638 32.7584C478.54 33.5861 476.252 34 473.773 34Z" fill="#FF0000"/>
<path d="M502.558 34C500.079 34 497.696 33.6021 495.408 32.8062C493.151 32.0103 491.404 30.9597 490.164 29.6545L491.547 26.9326C492.754 28.1423 494.359 29.1292 496.361 29.8933C498.363 30.6255 500.429 30.9916 502.558 30.9916C505.546 30.9916 507.786 30.4504 509.28 29.368C510.773 28.2537 511.52 26.8212 511.52 25.0702C511.52 23.7331 511.107 22.6667 510.281 21.8708C509.486 21.0749 508.501 20.47 507.325 20.0562C506.149 19.6105 504.513 19.133 502.415 18.6236C499.905 17.9869 497.903 17.382 496.409 16.809C494.915 16.2041 493.628 15.2968 492.548 14.0871C491.499 12.8773 490.975 11.2378 490.975 9.16854C490.975 7.48127 491.419 5.95318 492.309 4.58427C493.199 3.18352 494.566 2.06929 496.409 1.24157C498.252 0.413858 500.54 0 503.273 0C505.18 0 507.039 0.2706 508.851 0.811799C510.694 1.32116 512.283 2.03745 513.618 2.96067L512.426 5.77809C511.028 4.85487 509.534 4.17041 507.945 3.72472C506.356 3.24719 504.799 3.00843 503.273 3.00843C500.35 3.00843 498.141 3.58146 496.647 4.72753C495.185 5.84176 494.454 7.29026 494.454 9.07303C494.454 10.4101 494.852 11.4925 495.646 12.3202C496.472 13.1161 497.489 13.7369 498.697 14.1826C499.936 14.5964 501.589 15.0581 503.655 15.5674C506.102 16.1723 508.072 16.7772 509.566 17.382C511.091 17.9551 512.378 18.8464 513.427 20.0562C514.476 21.2341 515 22.8418 515 24.8792C515 26.5665 514.539 28.1105 513.618 29.5112C512.728 30.8801 511.345 31.9785 509.47 32.8062C507.595 33.6021 505.291 34 502.558 34Z" fill="#FF0000"/>
<path fill-rule="evenodd" clip-rule="evenodd" d="M59.6663 33.9999H64.9954L57.5376 21.1281L58.6519 20.6688C62.7978 18.9609 64.8885 15.1871 64.8885 10.81C64.8885 3.98451 60.0035 0.000101914 53.3587 0.000101914H41V4.49602H53.2032C57.004 4.49602 59.8552 6.94456 59.8552 10.81C59.8552 14.6688 57.014 17.1763 53.2032 17.1763H41V34H45.7742V21.6206H52.4661L59.6663 33.9999ZM195.666 19.1833L194.136 23.6275H200.852L204.464 33.9999H210L197.512 0H191.947L179.459 33.9999H185.105L194.729 6.04207L199.306 19.1891L195.666 19.1833ZM171.752 0.856972L154.99 19.2913L138.28 0.913886V33.9999H143.055V12.8718L154.967 25.6592L166.978 12.8907V33.9999H171.752V0.856972ZM72.7025 29.5554V33.9999H94.675V29.5554H72.7025ZM94.3636 14.8033H72.7025V19.2481H94.3636V14.8033ZM94.3636 0H72.7025V4.49592H94.3636V0ZM102.071 0V4.49592H112.513C120.225 4.49592 125.848 9.10913 125.848 16.9999C125.848 24.912 120.261 29.5554 112.513 29.5554H106.845V19.1877H102.071V33.9999C105.603 33.9999 109.136 33.9999 112.668 33.9999C123.274 33.9999 130.622 27.7714 130.622 16.9999C130.622 6.25578 123.249 0 112.668 0C109.136 0 105.603 0 102.071 0Z" fill="black"/>
<path fill-rule="evenodd" clip-rule="evenodd" d="M218 34H223.304L233 17.0002L223.304 0H218L227.696 17.0002L218 34Z" fill="black"/>
<path fill-rule="evenodd" clip-rule="evenodd" d="M243 34H237.527L233 26.3081L235.736 21.6584L243 34ZM233 7.69207L237.527 0H243L235.736 12.3418L233 7.69207Z" fill="#FF0000"/>
<path fill-rule="evenodd" clip-rule="evenodd" d="M11 34H16.3038L26 17.0002L16.3038 0H11L20.6959 17.0002L11 34Z" fill="#FF0000"/>
<path fill-rule="evenodd" clip-rule="evenodd" d="M0 34H5.30383L15 17.0002L5.30383 0H0L9.69617 17.0002L0 34Z" fill="#FF0000"/>
<path d="M270 0.286516H273.528V30.6573H292.214V33.7135H270V0.286516Z" fill="#FF0000"/>
<path d="M312.006 34C308.701 34 305.698 33.2678 302.997 31.8034C300.327 30.3071 298.23 28.2697 296.704 25.691C295.211 23.1124 294.464 20.2154 294.464 17C294.464 13.7846 295.211 10.8876 296.704 8.30899C298.23 5.73034 300.327 3.7088 302.997 2.24438C305.698 0.748127 308.701 0 312.006 0C315.311 0 318.283 0.73221 320.92 2.19663C323.59 3.66105 325.687 5.6985 327.213 8.30899C328.738 10.8876 329.501 13.7846 329.501 17C329.501 20.2154 328.738 23.1283 327.213 25.7388C325.687 28.3174 323.59 30.339 320.92 31.8034C318.283 33.2678 315.311 34 312.006 34ZM312.006 30.8483C314.644 30.8483 317.027 30.2594 319.157 29.0815C321.286 27.8717 322.954 26.2163 324.162 24.1152C325.37 21.9822 325.973 19.6105 325.973 17C325.973 14.3895 325.37 12.0337 324.162 9.93258C322.954 7.79963 321.286 6.1442 319.157 4.96629C317.027 3.75655 314.644 3.15168 312.006 3.15168C309.368 3.15168 306.969 3.75655 304.808 4.96629C302.679 6.1442 300.995 7.79963 299.755 9.93258C298.547 12.0337 297.944 14.3895 297.944 17C297.944 19.6105 298.547 21.9822 299.755 24.1152C300.995 26.2163 302.679 27.8717 304.808 29.0815C306.969 30.2594 309.368 30.8483 312.006 30.8483Z" fill="#FF0000"/>
<path d="M360.909 17H364.293V29.75C362.736 31.1189 360.893 32.1695 358.764 32.9017C356.634 33.6339 354.394 34 352.042 34C348.705 34 345.702 33.2678 343.033 31.8034C340.363 30.339 338.266 28.3174 336.74 25.7388C335.215 23.1283 334.452 20.2154 334.452 17C334.452 13.7846 335.215 10.8876 336.74 8.30899C338.266 5.6985 340.363 3.66105 343.033 2.19663C345.702 0.73221 348.721 0 352.09 0C354.632 0 356.968 0.413858 359.097 1.24157C361.227 2.03745 363.022 3.23127 364.484 4.82303L362.291 7.06742C359.654 4.45693 356.301 3.15168 352.233 3.15168C349.532 3.15168 347.085 3.75655 344.892 4.96629C342.731 6.1442 341.031 7.79963 339.791 9.93258C338.552 12.0337 337.932 14.3895 337.932 17C337.932 19.6105 338.552 21.9663 339.791 24.0674C341.031 26.1685 342.731 27.824 344.892 29.0337C347.053 30.2434 349.484 30.8483 352.185 30.8483C355.618 30.8483 358.525 29.9888 360.909 28.2697V17Z" fill="#FF0000"/>
<path d="M374.277 0.286516H377.805V33.7135H374.277V0.286516Z" fill="#FF0000"/>
<path d="M397.862 34C395.383 34 393 33.6021 390.712 32.8062C388.455 32.0103 386.707 30.9597 385.468 29.6545L386.85 26.9326C388.058 28.1423 389.663 29.1292 391.665 29.8933C393.667 30.6255 395.733 30.9916 397.862 30.9916C400.849 30.9916 403.09 30.4504 404.583 29.368C406.077 28.2537 406.824 26.8212 406.824 25.0702C406.824 23.7331 406.411 22.6667 405.585 21.8708C404.79 21.0749 403.805 20.47 402.629 20.0562C401.453 19.6105 399.817 19.133 397.719 18.6236C395.208 17.9869 393.206 17.382 391.713 16.809C390.219 16.2041 388.932 15.2968 387.851 14.0871C386.803 12.8773 386.278 11.2378 386.278 9.16854C386.278 7.48127 386.723 5.95318 387.613 4.58427C388.503 3.18352 389.869 2.06929 391.713 1.24157C393.556 0.413858 395.844 0 398.577 0C400.484 0 402.343 0.2706 404.154 0.811799C405.998 1.32116 407.587 2.03745 408.921 2.96067L407.73 5.77809C406.331 4.85487 404.838 4.17041 403.249 3.72472C401.66 3.24719 400.103 3.00843 398.577 3.00843C395.653 3.00843 393.445 3.58146 391.951 4.72753C390.489 5.84176 389.758 7.29026 389.758 9.07303C389.758 10.4101 390.155 11.4925 390.95 12.3202C391.776 13.1161 392.793 13.7369 394.001 14.1826C395.24 14.5964 396.893 15.0581 398.958 15.5674C401.406 16.1723 403.376 16.7772 404.87 17.382C406.395 17.9551 407.682 18.8464 408.731 20.0562C409.779 21.2341 410.304 22.8418 410.304 24.8792C410.304 26.5665 409.843 28.1105 408.921 29.5112C408.032 30.8801 406.649 31.9785 404.774 32.8062C402.899 33.6021 400.595 34 397.862 34Z" fill="#FF0000"/>
<path d="M424.007 3.3427H412.281V0.286516H439.262V3.3427H427.535V33.7135H424.007V3.3427Z" fill="#FF0000"/>
<path d="M444.897 0.286516H448.425V33.7135H444.897V0.286516Z" fill="#FF0000"/>
<path d="M473.773 34C470.468 34 467.481 33.2678 464.811 31.8034C462.174 30.339 460.092 28.3174 458.567 25.7388C457.073 23.1283 456.326 20.2154 456.326 17C456.326 13.7846 457.073 10.8876 458.567 8.30899C460.092 5.6985 462.19 3.66105 464.859 2.19663C467.529 0.73221 470.516 0 473.821 0C476.3 0 478.588 0.413858 480.685 1.24157C482.783 2.06929 484.562 3.27903 486.024 4.87079L483.784 7.11517C481.178 4.47285 477.889 3.15168 473.916 3.15168C471.279 3.15168 468.879 3.75655 466.718 4.96629C464.557 6.17603 462.857 7.83146 461.618 9.93258C460.41 12.0337 459.806 14.3895 459.806 17C459.806 19.6105 460.41 21.9663 461.618 24.0674C462.857 26.1685 464.557 27.824 466.718 29.0337C468.879 30.2434 471.279 30.8483 473.916 30.8483C477.921 30.8483 481.21 29.5112 483.784 26.8371L486.024 29.0815C484.562 30.6732 482.767 31.8989 480.638 32.7584C478.54 33.5861 476.252 34 473.773 34Z" fill="#FF0000"/>
<path d="M502.558 34C500.079 34 497.696 33.6021 495.408 32.8062C493.151 32.0103 491.404 30.9597 490.164 29.6545L491.547 26.9326C492.754 28.1423 494.359 29.1292 496.361 29.8933C498.363 30.6255 500.429 30.9916 502.558 30.9916C505.546 30.9916 507.786 30.4504 509.28 29.368C510.773 28.2537 511.52 26.8212 511.52 25.0702C511.52 23.7331 511.107 22.6667 510.281 21.8708C509.486 21.0749 508.501 20.47 507.325 20.0562C506.149 19.6105 504.513 19.133 502.415 18.6236C499.905 17.9869 497.903 17.382 496.409 16.809C494.915 16.2041 493.628 15.2968 492.548 14.0871C491.499 12.8773 490.975 11.2378 490.975 9.16854C490.975 7.48127 491.419 5.95318 492.309 4.58427C493.199 3.18352 494.566 2.06929 496.409 1.24157C498.252 0.413858 500.54 0 503.273 0C505.18 0 507.039 0.2706 508.851 0.811799C510.694 1.32116 512.283 2.03745 513.618 2.96067L512.426 5.77809C511.028 4.85487 509.534 4.17041 507.945 3.72472C506.356 3.24719 504.799 3.00843 503.273 3.00843C500.35 3.00843 498.141 3.58146 496.647 4.72753C495.185 5.84176 494.454 7.29026 494.454 9.07303C494.454 10.4101 494.852 11.4925 495.646 12.3202C496.472 13.1161 497.489 13.7369 498.697 14.1826C499.936 14.5964 501.589 15.0581 503.655 15.5674C506.102 16.1723 508.072 16.7772 509.566 17.382C511.091 17.9551 512.378 18.8464 513.427 20.0562C514.476 21.2341 515 22.8418 515 24.8792C515 26.5665 514.539 28.1105 513.618 29.5112C512.728 30.8801 511.345 31.9785 509.47 32.8062C507.595 33.6021 505.291 34 502.558 34Z" fill="#FF0000"/>
<path fill-rule="evenodd" clip-rule="evenodd" d="M59.6663 33.9999H64.9954L57.5376 21.1281L58.6519 20.6688C62.7978 18.9609 64.8885 15.1871 64.8885 10.81C64.8885 3.98451 60.0035 0.000101914 53.3587 0.000101914H41V4.49602H53.2032C57.004 4.49602 59.8552 6.94456 59.8552 10.81C59.8552 14.6688 57.014 17.1763 53.2032 17.1763H41V34H45.7742V21.6206H52.4661L59.6663 33.9999ZM195.666 19.1833L194.136 23.6275H200.852L204.464 33.9999H210L197.512 0H191.947L179.459 33.9999H185.105L194.729 6.04207L199.306 19.1891L195.666 19.1833ZM171.752 0.856972L154.99 19.2913L138.28 0.913886V33.9999H143.055V12.8718L154.967 25.6592L166.978 12.8907V33.9999H171.752V0.856972ZM72.7025 29.5554V33.9999H94.675V29.5554H72.7025ZM94.3636 14.8033H72.7025V19.2481H94.3636V14.8033ZM94.3636 0H72.7025V4.49592H94.3636V0ZM102.071 0V4.49592H112.513C120.225 4.49592 125.848 9.10913 125.848 16.9999C125.848 24.912 120.261 29.5554 112.513 29.5554H106.845V19.1877H102.071V33.9999C105.603 33.9999 109.136 33.9999 112.668 33.9999C123.274 33.9999 130.622 27.7714 130.622 16.9999C130.622 6.25578 123.249 0 112.668 0C109.136 0 105.603 0 102.071 0Z" fill="black"/>
<path fill-rule="evenodd" clip-rule="evenodd" d="M218 34H223.304L233 17.0002L223.304 0H218L227.696 17.0002L218 34Z" fill="black"/>
<path fill-rule="evenodd" clip-rule="evenodd" d="M243 34H237.527L233 26.3081L235.736 21.6584L243 34ZM233 7.69207L237.527 0H243L235.736 12.3418L233 7.69207Z" fill="#FF0000"/>
<path fill-rule="evenodd" clip-rule="evenodd" d="M11 34H16.3038L26 17.0002L16.3038 0H11L20.6959 17.0002L11 34Z" fill="#FF0000"/>
<path fill-rule="evenodd" clip-rule="evenodd" d="M0 34H5.30383L15 17.0002L5.30383 0H0L9.69617 17.0002L0 34Z" fill="#FF0000"/>
</svg>
