<svg width="172" height="54" viewBox="0 0 172 54" fill="none" xmlns="http://www.w3.org/2000/svg">
<path fill-rule="evenodd" clip-rule="evenodd" d="M16.8958 31.9409H20.4078L26.8284 20.9378L20.4078 9.93445H16.8958L23.3161 20.9378L16.8958 31.9409Z" fill="#FF0000"/>
<path fill-rule="evenodd" clip-rule="evenodd" d="M43.8263 31.9411H47.2609L42.4544 23.6098L43.1726 23.3125C45.8445 22.207 47.192 19.7644 47.192 16.9313C47.192 12.5134 44.0436 9.93451 39.761 9.93451H31.7959V12.8445H39.6609C42.1104 12.8445 43.9481 14.4294 43.9481 16.9313C43.9481 19.4289 42.1169 21.0519 39.6609 21.0519H31.7959V31.9412H34.8728V23.9285H39.1858L43.8263 31.9412V31.9411ZM131.478 22.3509L130.492 25.2275H134.82L137.148 31.9411H140.716L132.668 9.93445H129.081L121.033 31.9411H124.671L130.874 13.8452L133.824 22.3547L131.478 22.3509H131.478ZM116.065 10.4891L105.262 22.4209L94.4931 10.526V31.9411H97.57V18.2658L105.248 26.5425L112.989 18.2781V31.9411H116.065V10.4891ZM52.2281 29.0644V31.9411H66.3894V29.0644H52.2281ZM66.1887 19.516H52.2281V22.3929H66.1887V19.516ZM66.1887 9.93445H52.2281V12.8445H66.1887V9.93445ZM71.156 9.93445V12.8445H77.8858C82.8564 12.8445 86.4801 15.8304 86.4801 20.9378C86.4801 26.0589 82.8792 29.0644 77.8858 29.0644H74.2332V22.3538H71.1561V31.9411C73.4326 31.9411 75.7094 31.9411 77.9862 31.9411C84.8213 31.9411 89.5571 27.9097 89.5571 20.9378C89.5571 13.9835 84.8054 9.93445 77.9862 9.93445C75.7094 9.93445 73.4326 9.93445 71.1561 9.93445H71.156Z" fill="black"/>
<path d="M32.886 36.9218V42.4114H33.8595V36.9218H32.886ZM40.0553 38.8322C39.038 38.8322 38.2693 39.6298 38.2693 40.6472C38.2693 41.6648 39.038 42.4699 40.0553 42.4699C41.0727 42.4699 41.8413 41.6647 41.8413 40.6472C41.8413 39.6298 41.0727 38.8322 40.0553 38.8322ZM40.0553 41.577C39.5283 41.577 39.2208 41.1744 39.2208 40.6472C39.2208 40.1203 39.5283 39.7178 40.0553 39.7178C40.5823 39.7178 40.8897 40.1203 40.8897 40.6472C40.8897 41.1744 40.5824 41.577 40.0553 41.577ZM48.7469 38.8833V39.1908C48.5053 38.9712 48.1832 38.8322 47.81 38.8322C46.7927 38.8322 46.1047 39.6298 46.1047 40.6472C46.1047 41.6648 46.7927 42.4699 47.81 42.4699C48.1832 42.4699 48.498 42.3308 48.7469 42.1111C48.7396 42.7334 48.4103 43.1285 47.8392 43.1285C47.4221 43.1285 47.1512 42.9529 46.9755 42.7407L46.2436 43.2531C46.5073 43.6336 47.1221 44.0654 47.8612 44.0654C49.1568 44.0654 49.7203 43.1212 49.7203 41.8989C49.7203 40.757 49.7203 38.8833 49.7203 38.8833H48.7469ZM47.9124 41.577C47.3854 41.577 47.0781 41.1744 47.0781 40.6472C47.0781 40.1203 47.3854 39.7178 47.9124 39.7178C48.4394 39.7178 48.7469 40.1203 48.7469 40.6472C48.7469 41.1744 48.4394 41.577 47.9124 41.577ZM54.8256 38.393C55.1257 38.393 55.3672 38.1514 55.3672 37.8513C55.3672 37.544 55.1257 37.3024 54.8256 37.3024C54.5181 37.3024 54.2766 37.544 54.2766 37.8513C54.2766 38.1514 54.5181 38.393 54.8256 38.393ZM54.3351 42.4114H55.3086V38.8833H54.3351V42.4114ZM61.475 40.2521C60.9188 40.0837 60.8164 39.9959 60.8091 39.8642C60.8016 39.769 60.8969 39.5861 61.2703 39.6153C61.541 39.6374 61.6581 39.8056 61.6947 39.9228L62.4413 39.7104C62.39 39.3885 61.9874 38.8395 61.1385 38.8395C60.2235 38.8395 59.8282 39.3518 59.8062 39.8421C59.7843 40.4204 60.121 40.6839 60.8896 40.9548C61.38 41.1232 61.5484 41.1451 61.5555 41.3427C61.563 41.533 61.2703 41.5989 61.0068 41.5843C60.7579 41.5696 60.4504 41.4232 60.3772 41.2402L59.6671 41.6208C59.7843 42.0526 60.4358 42.4626 61.175 42.4626C61.9874 42.4626 62.5585 42.0307 62.5803 41.394C62.6022 40.8597 62.3022 40.5084 61.475 40.2521ZM68.9591 41.3719C68.8639 41.4597 68.681 41.5184 68.5492 41.5184C68.2418 41.5184 68.1613 41.3281 68.1613 41.0133V39.8202H68.981V38.8833H68.1613V37.8732L67.1877 38.0927V38.8833H66.7047V39.8202H67.1877V41.3281C67.1877 42.06 67.6051 42.4479 68.3517 42.4479C68.7688 42.4479 69.0983 42.2942 69.2813 42.1186L68.9591 41.3719ZM74.1668 38.393C74.4669 38.393 74.7084 38.1514 74.7084 37.8513C74.7084 37.544 74.4669 37.3024 74.1668 37.3024C73.8595 37.3024 73.6178 37.544 73.6178 37.8513C73.6178 38.1514 73.8594 38.393 74.1668 38.393ZM73.6764 42.4114H74.6498V38.8833H73.6764V42.4114ZM80.9041 41.577C80.3771 41.577 80.0771 41.1744 80.0771 40.6472C80.0771 40.1203 80.3771 39.7178 80.9041 39.7178C81.1968 39.7178 81.4164 39.842 81.5556 40.0324L82.3608 39.6445C82.0679 39.1541 81.5482 38.8321 80.9042 38.8321C79.8868 38.8321 79.1182 39.6298 79.1182 40.6471C79.1182 41.6647 79.8868 42.4698 80.9042 42.4698C81.5482 42.4698 82.0679 42.1477 82.3608 41.6574L81.5556 41.2621C81.4164 41.4596 81.1968 41.5769 80.9041 41.5769V41.577ZM88.3954 40.2521C87.8392 40.0837 87.7368 39.9959 87.7295 39.8642C87.722 39.769 87.8172 39.5861 88.1904 39.6153C88.4612 39.6374 88.5784 39.8056 88.6151 39.9228L89.3615 39.7104C89.3103 39.3885 88.9078 38.8395 88.0587 38.8395C87.1439 38.8395 86.7484 39.3518 86.7265 39.8421C86.7046 40.4204 87.0413 40.6839 87.8099 40.9548C88.3003 41.1232 88.4685 41.1451 88.4758 41.3427C88.4833 41.533 88.1904 41.5989 87.9269 41.5843C87.6781 41.5696 87.3707 41.4232 87.2975 41.2402L86.5874 41.6208C86.7046 42.0526 87.3561 42.4626 88.0953 42.4626C88.9077 42.4626 89.4788 42.0307 89.5006 41.394C89.5225 40.8597 89.2223 40.5084 88.3953 40.2521H88.3954Z" fill="#FF0000"/>
<path fill-rule="evenodd" clip-rule="evenodd" d="M9.93457 31.9409H13.4466L19.8672 20.9378L13.4466 9.93445H9.93457L16.3551 20.9378L9.93457 31.9409Z" fill="#FF0000"/>
<path fill-rule="evenodd" clip-rule="evenodd" d="M145.505 31.9409H149.017L155.437 20.9378L149.017 9.93445H145.505L151.925 20.9378L145.505 31.9409Z" fill="black"/>
<path fill-rule="evenodd" clip-rule="evenodd" d="M161.858 31.9409H158.346L155.44 26.9624L157.197 23.9528L161.858 31.9409ZM155.44 14.9131L158.346 9.93445H161.858L157.197 17.9227L155.44 14.9131Z" fill="#FF0000"/>
</svg>
