<svg width="62" height="68" viewBox="0 0 62 68" fill="none" xmlns="http://www.w3.org/2000/svg">
<path d="M35.4891 61.9669H1V5.30249H43.8187V35.0692" stroke="black" stroke-width="2" stroke-miterlimit="10" stroke-linecap="round" stroke-linejoin="round"/>
<path d="M6.13867 0.999023H48.9575V32.8459" stroke="#FF0000" stroke-width="2" stroke-miterlimit="10" stroke-linecap="round" stroke-linejoin="round"/>
<path d="M53.4588 63.7301L48.2445 66.9991L43.0303 63.7301C38.3067 60.6583 35.4893 55.6119 35.4893 50.2235V37.4783L38.0209 38.5994C40.5498 39.5972 43.4045 39.5799 45.9192 38.5513L48.2445 37.4783L50.7905 38.6024C53.3204 39.5982 56.1753 39.5784 58.6892 38.5477L60.9998 37.4783V50.2236C60.9998 55.6119 58.1823 60.6583 53.4588 63.7301Z" stroke="black" stroke-width="2" stroke-miterlimit="10" stroke-linecap="round" stroke-linejoin="round"/>
<path d="M42.8213 51.7503L45.7299 54.678L54.2133 46.1389" stroke="#FF0000" stroke-width="2" stroke-miterlimit="10" stroke-linecap="round" stroke-linejoin="round"/>
<path d="M31.2529 32.8457H36.059" stroke="black" stroke-width="2" stroke-miterlimit="10" stroke-linecap="round" stroke-linejoin="round"/>
<path d="M24.8555 32.8457H27.7748" stroke="black" stroke-width="2" stroke-miterlimit="10" stroke-linecap="round" stroke-linejoin="round"/>
<path d="M8.55371 32.8457H21.144" stroke="black" stroke-width="2" stroke-miterlimit="10" stroke-linecap="round" stroke-linejoin="round"/>
<path d="M17.8711 39.4448H30.7857" stroke="black" stroke-width="2" stroke-miterlimit="10" stroke-linecap="round" stroke-linejoin="round"/>
<path d="M8.55371 39.4448H13.8303" stroke="black" stroke-width="2" stroke-miterlimit="10" stroke-linecap="round" stroke-linejoin="round"/>
<path d="M28.0566 46.0437H30.7864" stroke="black" stroke-width="2" stroke-miterlimit="10" stroke-linecap="round" stroke-linejoin="round"/>
<path d="M8.55371 46.0437H24.069" stroke="black" stroke-width="2" stroke-miterlimit="10" stroke-linecap="round" stroke-linejoin="round"/>
<path d="M8.55371 52.6428H18.2449" stroke="black" stroke-width="2" stroke-miterlimit="10" stroke-linecap="round" stroke-linejoin="round"/>
<path d="M23.6473 17.4623C21.7041 16.6641 21.3746 16.2293 21.3715 15.5565C21.3685 14.9316 21.8117 14.2617 23.0652 14.2555C24.3138 14.2494 25.1013 14.6972 25.4377 14.8885C25.5658 14.9613 25.7194 14.9741 25.8576 14.9233C25.996 14.8725 26.1053 14.7634 26.1568 14.6245L26.6697 13.241C26.7555 13.0095 26.6577 12.7494 26.4455 12.6255C25.7183 12.2011 24.8552 11.9517 23.9833 11.8672L23.9757 9.7627C23.9743 9.48282 23.7584 9.27581 23.4803 9.27711L22.1915 9.28342C21.9135 9.28485 21.7333 9.49386 21.7346 9.7736L21.7429 12.0231C19.7531 12.5063 18.5916 13.959 18.6005 15.8211C18.6116 18.116 20.4076 19.135 22.3533 19.8919C24.145 20.6127 24.3891 21.2841 24.3921 21.9021C24.3966 22.8255 23.6052 23.4498 22.4267 23.4555C21.4732 23.4603 20.4812 23.1682 19.7073 22.6544C19.5781 22.5684 19.4159 22.5475 19.2691 22.597C19.1223 22.6468 19.006 22.7617 18.9544 22.9087L18.4621 24.313C18.3873 24.5267 18.4326 24.7646 18.6165 24.8954C19.3396 25.41 20.4399 25.7736 21.5609 25.8692L21.5689 27.5413C21.5703 27.8211 21.856 28.0464 22.1341 28.0451L23.4437 28.0386C23.7217 28.0372 23.9359 27.8095 23.9345 27.5297L23.926 25.7276C25.9157 25.2238 27.2053 23.6667 27.1959 21.7418C27.1893 20.4165 26.7844 18.732 23.6473 17.4623Z" fill="#FF0000"/>
</svg>
