<svg width="60" height="59" viewBox="0 0 60 59" fill="none" xmlns="http://www.w3.org/2000/svg">
<path d="M60 31.0909C60 30.1818 59.7273 29.3636 59.2727 28.6363L53.1818 18.5454C52.2727 17.0909 50.7273 16.2727 49.0909 16.2727H40.0909V15.4545C40.0909 14.909 39.7273 14.5454 39.1818 14.5454C38.6364 14.5454 38.2727 14.909 38.2727 15.4545V39.4545H1.81818V20C1.81818 19.4545 1.45455 19.0909 0.909091 19.0909C0.363636 19.0909 0 19.4545 0 20V50.1818C0 50.7272 0.363636 51.0909 0.909091 51.0909H10.4545V51.8181C10.4545 55.6363 13.5455 58.8181 17.4545 58.8181C21.2727 58.8181 24.4545 55.7272 24.4545 51.8181V51.0909H39.9091V51.8181C39.9091 55.6363 43 58.8181 46.9091 58.8181C50.7273 58.8181 53.9091 55.7272 53.9091 51.8181V51.0909H59.0909C59.6364 51.0909 60 50.7272 60 50.1818V31.0909V31.0909ZM49.0909 18.0909C50.0909 18.0909 51.0909 18.6363 51.6364 19.5454L57.7273 29.6363C58 30.0909 58.1818 30.6363 58.1818 31.1818V39.5454H40.0909V18.0909H49.0909ZM17.4545 56.909C14.6364 56.909 12.2727 54.6363 12.2727 51.7272C12.2727 48.909 14.5455 46.5454 17.4545 46.5454C20.3636 46.5454 22.6364 48.8181 22.6364 51.7272C22.5455 54.5454 20.2727 56.909 17.4545 56.909ZM46.8182 56.909C44 56.909 41.6364 54.6363 41.6364 51.7272C41.6364 48.909 43.9091 46.5454 46.8182 46.5454C49.6364 46.5454 52 48.8181 52 51.7272C52 54.5454 49.6364 56.909 46.8182 56.909ZM58.1818 49.1818H53.3636C52.3636 46.5454 49.8182 44.7272 46.8182 44.7272C43.8182 44.7272 41.2727 46.5454 40.2727 49.1818H23.9091C22.9091 46.5454 20.3636 44.7272 17.3636 44.7272C14.3636 44.7272 11.8182 46.5454 10.8182 49.1818H1.81818V41.2727H58.1818V49.1818Z" fill="black"/>
<path d="M44.3638 31.1818H53.4547C54.0002 31.1818 54.3638 30.8182 54.3638 30.2727C54.3638 30 54.2729 29.8182 54.0911 29.6364L49.6365 22.4545C49.182 21.7273 48.3638 21.2727 47.5456 21.2727H44.2729C43.7274 21.2727 43.3638 21.6364 43.3638 22.1818V30.2727C43.4547 30.8182 43.8184 31.1818 44.3638 31.1818V31.1818ZM45.2729 23.0909H47.6365C47.8184 23.0909 48.0911 23.1818 48.182 23.3636L51.8184 29.2727H45.2729V23.0909V23.0909ZM4.72745 37.8182H12.7275C13.2729 37.8182 13.6365 37.4545 13.6365 36.9091V28.0909C13.6365 27.5455 13.2729 27.1818 12.7275 27.1818H4.72745C4.182 27.1818 3.81836 27.5455 3.81836 28.0909V36.9091C3.81836 37.4545 4.2729 37.8182 4.72745 37.8182ZM5.63654 29H11.8184V36H5.63654V29ZM16.0002 37.8182H24.0002C24.5456 37.8182 24.9093 37.4545 24.9093 36.9091V28.0909C24.9093 27.5455 24.5456 27.1818 24.0002 27.1818H16.0002C15.4547 27.1818 15.0911 27.5455 15.0911 28.0909V36.9091C15.0911 37.4545 15.5456 37.8182 16.0002 37.8182ZM16.9093 29H23.0911V36H16.9093V29ZM27.3638 37.8182H35.3638C35.9093 37.8182 36.2729 37.4545 36.2729 36.9091V28.0909C36.2729 27.5455 35.9093 27.1818 35.3638 27.1818H27.3638C26.8184 27.1818 26.4547 27.5455 26.4547 28.0909V36.9091C26.4547 37.4545 26.8184 37.8182 27.3638 37.8182V37.8182ZM28.2729 29H34.4547V36H28.2729V29V29ZM4.72745 24.2727H12.7275C13.2729 24.2727 13.6365 23.9091 13.6365 23.3636V14.5455C13.6365 14 13.2729 13.6364 12.7275 13.6364H4.72745C4.182 13.6364 3.81836 14 3.81836 14.5455V23.3636C3.81836 23.9091 4.2729 24.2727 4.72745 24.2727ZM5.63654 15.4545H11.8184V22.4545H5.63654V15.4545ZM16.0002 24.2727H24.0002C24.5456 24.2727 24.9093 23.9091 24.9093 23.3636V14.5455C24.9093 14 24.5456 13.6364 24.0002 13.6364H16.0002C15.4547 13.6364 15.0911 14 15.0911 14.5455V23.3636C15.0911 23.9091 15.5456 24.2727 16.0002 24.2727ZM16.9093 15.4545H23.0911V22.4545H16.9093V15.4545ZM27.3638 24.2727H35.3638C35.9093 24.2727 36.2729 23.9091 36.2729 23.3636V14.5455C36.2729 14 35.9093 13.6364 35.3638 13.6364H27.3638C26.8184 13.6364 26.4547 14 26.4547 14.5455V23.3636C26.4547 23.9091 26.8184 24.2727 27.3638 24.2727V24.2727ZM28.2729 15.4545H34.4547V22.4545H28.2729V15.4545V15.4545ZM4.72745 10.6364H12.7275C13.2729 10.6364 13.6365 10.2727 13.6365 9.72727V0.909091C13.6365 0.363636 13.2729 0 12.7275 0H4.72745C4.182 0 3.81836 0.363636 3.81836 0.909091V9.72727C3.81836 10.2727 4.2729 10.6364 4.72745 10.6364V10.6364ZM5.63654 1.81818H11.8184V8.81818H5.63654V1.81818V1.81818ZM16.0002 10.6364H24.0002C24.5456 10.6364 24.9093 10.2727 24.9093 9.72727V0.909091C24.9093 0.363636 24.5456 0 24.0002 0H16.0002C15.4547 0 15.0911 0.363636 15.0911 0.909091V9.72727C15.0911 10.2727 15.5456 10.6364 16.0002 10.6364V10.6364ZM16.9093 1.81818H23.0911V8.81818H16.9093V1.81818V1.81818ZM27.3638 10.6364H35.3638C35.9093 10.6364 36.2729 10.2727 36.2729 9.72727V0.909091C36.2729 0.363636 35.9093 0 35.3638 0H27.3638C26.8184 0 26.4547 0.363636 26.4547 0.909091V9.72727C26.4547 10.2727 26.8184 10.6364 27.3638 10.6364V10.6364ZM28.2729 1.81818H34.4547V8.81818H28.2729V1.81818V1.81818Z" fill="#FF0000"/>
</svg>
