<svg width="50" height="50" viewBox="0 0 50 50" fill="none" xmlns="http://www.w3.org/2000/svg">
<path d="M27.7547 11.054C27.7344 11.0415 27.7117 11.0353 27.6906 11.0251L27.693 11.0196L18.318 6.33213C18.0984 6.22197 17.8391 6.22197 17.6187 6.33213L8.24375 11.0196L8.24609 11.0251C8.225 11.036 8.20234 11.0415 8.18203 11.054C7.95312 11.197 7.8125 11.4478 7.8125 11.7188V22.6563C7.8125 22.9524 7.97969 23.2228 8.24453 23.3556L17.6195 28.0431C17.6305 28.0485 17.6438 28.0462 17.6555 28.0517C17.7555 28.0954 17.8609 28.1251 17.9688 28.1251C18.0766 28.1251 18.182 28.0954 18.282 28.0509C18.2937 28.0462 18.3063 28.0478 18.318 28.0423L27.693 23.3548C27.9578 23.2228 28.125 22.9524 28.125 22.6563V11.7188C28.125 11.4478 27.9844 11.197 27.7547 11.054ZM17.9688 7.90479L25.5969 11.7188L24.2188 12.4079L16.5906 8.59385L17.9688 7.90479ZM17.9688 15.5329L10.3406 11.7188L11.7188 11.0298L19.3469 14.8438L17.9688 15.5329ZM21.0938 13.9704L13.4656 10.1563L14.8438 9.46729L22.4719 13.2813L21.0938 13.9704ZM21.875 15.3267L23.4375 14.5454V18.2673L21.875 19.0485V15.3267ZM9.375 12.9829L17.1875 16.8892V26.0798L9.375 22.1735V12.9829ZM26.5625 22.1735L18.75 26.0798V16.8892L20.3125 16.1079V20.3126C20.3125 20.5837 20.4531 20.8345 20.6828 20.9774C20.8086 21.0548 20.9508 21.0938 21.0938 21.0938C21.2133 21.0938 21.3328 21.0665 21.443 21.0118L24.568 19.4493C24.8328 19.3165 25 19.0462 25 18.7501V13.7642L26.5625 12.9829V22.1735Z" fill="#FF0000"/>
<path d="M49.2188 39.0625H48.4375V28.9062C48.4375 28.7609 48.3977 28.6203 48.3219 28.4969L42.0719 18.3406C41.9289 18.1094 41.6773 17.9688 41.4062 17.9688H34.375V0.78125C34.375 0.349219 34.025 0 33.5938 0H2.34375C1.9125 0 1.5625 0.349219 1.5625 0.78125V39.0625H0.78125C0.35 39.0625 0 39.4117 0 39.8438V42.9688C0 43.4008 0.35 43.75 0.78125 43.75H5.51484C5.90547 47.2602 8.8875 50 12.5 50C16.1125 50 19.0953 47.2602 19.4852 43.75H32.0773C32.468 47.2602 35.45 50 39.0625 50C42.675 50 45.6578 47.2602 46.0477 43.75H49.2188C49.65 43.75 50 43.4008 50 42.9688V39.8438C50 39.4117 49.65 39.0625 49.2188 39.0625ZM40.9695 19.5312L46.2578 28.125H34.375V19.5312H40.9695ZM3.125 1.5625H32.8125V31.25H3.125V1.5625ZM1.5625 40.625H2.34375C2.775 40.625 3.125 40.2758 3.125 39.8438V32.8125H32.8125V39.7625C32.4297 40.5047 32.1734 41.3219 32.0773 42.1875H19.4852C19.0945 38.6773 16.1125 35.9375 12.5 35.9375C8.8875 35.9375 5.90469 38.6773 5.51484 42.1875H1.5625V40.625ZM12.5 48.4375C9.48438 48.4375 7.03125 45.9836 7.03125 42.9688C7.03125 39.9539 9.48438 37.5 12.5 37.5C15.5156 37.5 17.9688 39.9539 17.9688 42.9688C17.9688 45.9836 15.5156 48.4375 12.5 48.4375ZM39.0625 48.4375C36.0469 48.4375 33.5938 45.9836 33.5938 42.9688C33.5938 39.9539 36.0469 37.5 39.0625 37.5C42.0781 37.5 44.5312 39.9539 44.5312 42.9688C44.5312 45.9836 42.0781 48.4375 39.0625 48.4375ZM48.4375 42.1875H46.0477C45.657 38.6773 42.675 35.9375 39.0625 35.9375C37.2609 35.9375 35.6203 36.6242 34.375 37.743V29.6875H46.875V39.8438C46.875 40.2758 47.225 40.625 47.6562 40.625H48.4375V42.1875Z" fill="black"/>
<path d="M39.0625 31.25H35.9375V32.8125H39.0625V31.25Z" fill="#FF0000"/>
<path d="M12.5 39.0625C10.3461 39.0625 8.59375 40.8148 8.59375 42.9688C8.59375 45.1227 10.3461 46.875 12.5 46.875C14.6539 46.875 16.4062 45.1227 16.4062 42.9688C16.4062 40.8148 14.6539 39.0625 12.5 39.0625ZM12.5 45.3125C11.2078 45.3125 10.1562 44.2609 10.1562 42.9688C10.1562 41.6766 11.2078 40.625 12.5 40.625C13.7922 40.625 14.8438 41.6766 14.8438 42.9688C14.8438 44.2609 13.7922 45.3125 12.5 45.3125ZM39.0625 39.0625C36.9086 39.0625 35.1562 40.8148 35.1562 42.9688C35.1562 45.1227 36.9086 46.875 39.0625 46.875C41.2164 46.875 42.9688 45.1227 42.9688 42.9688C42.9688 40.8148 41.2164 39.0625 39.0625 39.0625ZM39.0625 45.3125C37.7703 45.3125 36.7188 44.2609 36.7188 42.9688C36.7188 41.6766 37.7703 40.625 39.0625 40.625C40.3547 40.625 41.4062 41.6766 41.4062 42.9688C41.4062 44.2609 40.3547 45.3125 39.0625 45.3125Z" fill="#FF0000"/>
</svg>
