<svg width="60" height="53" viewBox="0 0 60 53" fill="none" xmlns="http://www.w3.org/2000/svg">
<path d="M0.179911 43.175C-0.0884476 43.6104 -0.0538774 44.1682 0.265457 44.5671C0.497488 44.8575 0.843776 45.0172 1.20002 45.0172C1.3342 45.0172 1.46897 44.9948 1.60022 44.9482L12.9838 40.9011C16.0807 42.4413 19.5 43.4433 23.0486 43.8751C26.5264 48.9967 33.0555 52.1607 40.2702 52.1607C43.8069 52.1607 47.2815 51.3695 50.3542 49.8685L58.3996 52.7303C58.5309 52.7769 58.6656 52.7993 58.7998 52.7993C59.1561 52.7993 59.5024 52.6396 59.735 52.3492C60.0543 51.9498 60.0883 51.3913 59.8194 50.9565L56.3483 45.337C58.7412 42.6 59.9998 39.3835 59.9998 35.9808C59.9998 31.5605 57.7721 27.3509 53.8964 24.3009C53.9878 23.564 54.035 22.8165 54.035 22.0602C54.035 9.8957 41.9149 -0.000732422 27.0175 -0.000732422C12.1201 -0.000732422 2.86766e-05 9.8957 2.86766e-05 22.0602C2.86766e-05 26.7784 1.79123 31.2491 5.19259 35.0453L0.179911 43.175ZM57.5998 35.9808C57.5998 39.033 56.3512 41.9255 53.9893 44.3467C53.602 44.7438 53.5346 45.3553 53.8264 45.8278L55.9768 49.3088L50.6735 47.4225C50.3606 47.3111 50.0167 47.3365 49.7225 47.4879C46.8755 48.9665 43.6071 49.7477 40.2702 49.7477C34.6416 49.7477 29.5115 47.6282 26.2844 44.1012C26.5289 44.1066 26.7723 44.1217 27.0175 44.1217C39.8453 44.1217 50.606 36.7812 53.3504 26.9759C56.0653 29.4722 57.5998 32.6704 57.5998 35.9808ZM2.40002 22.0602C2.40002 11.2265 13.4431 2.41225 27.0175 2.41225C40.5919 2.41225 51.635 11.2265 51.635 22.0602C51.635 32.8945 40.5919 41.7087 27.0175 41.7087C22.2621 41.7087 17.6285 40.6059 13.6189 38.5199C13.4467 38.4303 13.2574 38.385 13.0676 38.385C12.9328 38.385 12.7974 38.4079 12.6674 38.4539L4.01837 41.529L7.7168 35.5307C8.00684 35.0595 7.94063 34.4503 7.55625 34.0533C4.18302 30.5728 2.40002 26.4261 2.40002 22.0602Z" fill="black"/>
<path d="M14.4471 18.0788H39.5866C40.2493 18.0788 40.7866 17.5385 40.7866 16.8723C40.7866 16.206 40.2493 15.6658 39.5866 15.6658H14.4471C13.7844 15.6658 13.2471 16.206 13.2471 16.8723C13.2471 17.5385 13.7844 18.0788 14.4471 18.0788ZM14.4471 28.4547H39.5866C40.2493 28.4547 40.7866 27.9145 40.7866 27.2482C40.7866 26.5819 40.2493 26.0417 39.5866 26.0417H14.4471C13.7844 26.0417 13.2471 26.5819 13.2471 27.2482C13.2471 27.9145 13.7844 28.4547 14.4471 28.4547Z" fill="#FF0000"/>
</svg>
