<svg width="60" height="49" viewBox="0 0 60 49" fill="none" xmlns="http://www.w3.org/2000/svg">
<path d="M31.158 7.12729V1.03986C31.158 0.467532 30.6844 -0.000732422 30.1054 -0.000732422C29.5265 -0.000732422 29.0528 0.467532 29.0528 1.03986V7.12729C28.2107 7.54353 27.5791 8.376 27.5791 9.36456C27.5791 10.7173 28.6844 11.862 30.1054 11.862C31.5265 11.862 32.6317 10.7173 32.6317 9.36456C32.6317 8.376 32.0528 7.4915 31.158 7.12729ZM46.9475 7.12729V1.03986C46.9475 0.467532 46.4738 -0.000732422 45.8949 -0.000732422C45.3159 -0.000732422 44.8423 0.467532 44.8423 1.03986V7.12729C44.0002 7.54353 43.3686 8.376 43.3686 9.36456C43.3686 10.7173 44.4738 11.862 45.8949 11.862C47.3159 11.862 48.4212 10.7173 48.4212 9.36456C48.4212 8.376 47.8423 7.4915 46.9475 7.12729Z" fill="#FF0000"/>
<path d="M27.9998 3.64087H16.4209V5.72205H27.9998V3.64087Z" fill="black"/>
<path d="M43.7899 3.64087H32.2109V5.72205H43.7899V3.64087Z" fill="black"/>
<path d="M15.3685 7.12729V1.03986C15.3685 0.467532 14.8948 -0.000732422 14.3159 -0.000732422C13.7369 -0.000732422 13.2632 0.467532 13.2632 1.03986V7.12729C12.4211 7.54353 11.7896 8.376 11.7896 9.36456C11.7896 10.7173 12.8948 11.862 14.3159 11.862C15.7369 11.862 16.8422 10.7173 16.8422 9.36456C16.8422 8.376 16.2632 7.4915 15.3685 7.12729Z" fill="#FF0000"/>
<path d="M54.7368 3.64087H47.8947V5.72205H54.7368C56.4737 5.72205 57.8947 7.12684 57.8947 8.84381V14.567H2.10526V8.84381C2.10526 7.12684 3.52632 5.72205 5.26316 5.72205H12.1053V3.64087H5.26316C2.36842 3.64087 0 5.98219 0 8.84381V43.1832C0 46.0448 2.36842 48.3862 5.26316 48.3862H54.7368C57.6316 48.3862 60 46.0448 60 43.1832V8.84381C60 5.98219 57.6316 3.64087 54.7368 3.64087ZM54.7368 46.305H5.26316C3.52632 46.305 2.10526 44.9002 2.10526 43.1832V16.6482H57.8947V43.1832C57.8947 44.9002 56.4737 46.305 54.7368 46.305Z" fill="black"/>
<path d="M23.1577 24.609C24.117 24.609 24.8946 23.8403 24.8946 22.892C24.8946 21.9438 24.117 21.175 23.1577 21.175C22.1985 21.175 21.4209 21.9438 21.4209 22.892C21.4209 23.8403 22.1985 24.609 23.1577 24.609Z" fill="#FF0000"/>
<path d="M16.7368 24.609C17.6961 24.609 18.4737 23.8403 18.4737 22.892C18.4737 21.9438 17.6961 21.175 16.7368 21.175C15.7776 21.175 15 21.9438 15 22.892C15 23.8403 15.7776 24.609 16.7368 24.609Z" fill="#FF0000"/>
<path d="M48.8423 24.609C49.8015 24.609 50.5791 23.8403 50.5791 22.892C50.5791 21.9438 49.8015 21.175 48.8423 21.175C47.8831 21.175 47.1055 21.9438 47.1055 22.892C47.1055 23.8403 47.8831 24.609 48.8423 24.609Z" fill="#FF0000"/>
<path d="M10.3159 30.3843C11.2752 30.3843 12.0528 29.6155 12.0528 28.6673C12.0528 27.719 11.2752 26.9503 10.3159 26.9503C9.35671 26.9503 8.5791 27.719 8.5791 28.6673C8.5791 29.6155 9.35671 30.3843 10.3159 30.3843Z" fill="#FF0000"/>
<path d="M16.7368 30.3843C17.6961 30.3843 18.4737 29.6155 18.4737 28.6673C18.4737 27.719 17.6961 26.9503 16.7368 26.9503C15.7776 26.9503 15 27.719 15 28.6673C15 29.6155 15.7776 30.3843 16.7368 30.3843Z" fill="#FF0000"/>
<path d="M23.1577 30.3843C24.117 30.3843 24.8946 29.6155 24.8946 28.6673C24.8946 27.719 24.117 26.9503 23.1577 26.9503C22.1985 26.9503 21.4209 27.719 21.4209 28.6673C21.4209 29.6155 22.1985 30.3843 23.1577 30.3843Z" fill="#FF0000"/>
<path d="M29.5786 30.3844C30.5379 30.3844 31.3155 29.6157 31.3155 28.6674C31.3155 27.7192 30.5379 26.9504 29.5786 26.9504C28.6194 26.9504 27.8418 27.7192 27.8418 28.6674C27.8418 29.6157 28.6194 30.3844 29.5786 30.3844Z" fill="#FF0000"/>
<path d="M36 30.3843C36.9593 30.3843 37.7369 29.6155 37.7369 28.6673C37.7369 27.719 36.9593 26.9503 36 26.9503C35.0408 26.9503 34.2632 27.719 34.2632 28.6673C34.2632 29.6155 35.0408 30.3843 36 30.3843Z" fill="#FF0000"/>
<path d="M42.3682 30.3844C43.3274 30.3844 44.105 29.6157 44.105 28.6674C44.105 27.7192 43.3274 26.9504 42.3682 26.9504C41.409 26.9504 40.6313 27.7192 40.6313 28.6674C40.6313 29.6157 41.409 30.3844 42.3682 30.3844Z" fill="#FF0000"/>
<path d="M16.7368 36.2118C17.6961 36.2118 18.4737 35.4431 18.4737 34.4948C18.4737 33.5465 17.6961 32.7778 16.7368 32.7778C15.7776 32.7778 15 33.5465 15 34.4948C15 35.4431 15.7776 36.2118 16.7368 36.2118Z" fill="#FF0000"/>
<path d="M23.1577 36.2118C24.117 36.2118 24.8946 35.4431 24.8946 34.4948C24.8946 33.5465 24.117 32.7778 23.1577 32.7778C22.1985 32.7778 21.4209 33.5465 21.4209 34.4948C21.4209 35.4431 22.1985 36.2118 23.1577 36.2118Z" fill="#FF0000"/>
<path d="M29.5791 36.2118C30.5384 36.2118 31.316 35.4431 31.316 34.4948C31.316 33.5465 30.5384 32.7778 29.5791 32.7778C28.6199 32.7778 27.8423 33.5465 27.8423 34.4948C27.8423 35.4431 28.6199 36.2118 29.5791 36.2118Z" fill="#FF0000"/>
<path d="M36 36.2118C36.9593 36.2118 37.7369 35.4431 37.7369 34.4948C37.7369 33.5465 36.9593 32.7778 36 32.7778C35.0408 32.7778 34.2632 33.5465 34.2632 34.4948C34.2632 35.4431 35.0408 36.2118 36 36.2118Z" fill="#FF0000"/>
<path d="M42.3682 36.2118C43.3274 36.2118 44.105 35.4431 44.105 34.4948C44.105 33.5465 43.3274 32.7778 42.3682 32.7778C41.409 32.7778 40.6313 33.5465 40.6313 34.4948C40.6313 35.4431 41.409 36.2118 42.3682 36.2118Z" fill="#FF0000"/>
<path d="M29.5791 24.7651C30.5384 24.7651 31.316 23.9964 31.316 23.0481C31.316 22.0999 30.5384 21.3312 29.5791 21.3312C28.6199 21.3312 27.8423 22.0999 27.8423 23.0481C27.8423 23.9964 28.6199 24.7651 29.5791 24.7651Z" fill="#FF0000"/>
<path d="M36 24.7651C36.9593 24.7651 37.7369 23.9964 37.7369 23.0481C37.7369 22.0999 36.9593 21.3312 36 21.3312C35.0408 21.3312 34.2632 22.0999 34.2632 23.0481C34.2632 23.9964 35.0408 24.7651 36 24.7651Z" fill="#FF0000"/>
<path d="M42.3682 24.7652C43.3274 24.7652 44.105 23.9965 44.105 23.0483C44.105 22.1 43.3274 21.3313 42.3682 21.3313C41.409 21.3313 40.6313 22.1 40.6313 23.0483C40.6313 23.9965 41.409 24.7652 42.3682 24.7652Z" fill="#FF0000"/>
<path d="M48.7896 30.3844C49.7488 30.3844 50.5264 29.6157 50.5264 28.6674C50.5264 27.7192 49.7488 26.9504 48.7896 26.9504C47.8303 26.9504 47.0527 27.7192 47.0527 28.6674C47.0527 29.6157 47.8303 30.3844 48.7896 30.3844Z" fill="#FF0000"/>
<path d="M48.8423 36.2118C49.8015 36.2118 50.5791 35.4431 50.5791 34.4948C50.5791 33.5465 49.8015 32.7778 48.8423 32.7778C47.8831 32.7778 47.1055 33.5465 47.1055 34.4948C47.1055 35.4431 47.8831 36.2118 48.8423 36.2118Z" fill="#FF0000"/>
<path d="M10.3159 36.0034C11.2752 36.0034 12.0528 35.2347 12.0528 34.2864C12.0528 33.3382 11.2752 32.5695 10.3159 32.5695C9.35671 32.5695 8.5791 33.3382 8.5791 34.2864C8.5791 35.2347 9.35671 36.0034 10.3159 36.0034Z" fill="#FF0000"/>
<path d="M10.3159 41.675C11.2752 41.675 12.0528 40.9063 12.0528 39.9581C12.0528 39.0098 11.2752 38.2411 10.3159 38.2411C9.35671 38.2411 8.5791 39.0098 8.5791 39.9581C8.5791 40.9063 9.35671 41.675 10.3159 41.675Z" fill="#FF0000"/>
<path d="M16.7368 41.675C17.6961 41.675 18.4737 40.9063 18.4737 39.9581C18.4737 39.0098 17.6961 38.2411 16.7368 38.2411C15.7776 38.2411 15 39.0098 15 39.9581C15 40.9063 15.7776 41.675 16.7368 41.675Z" fill="#FF0000"/>
<path d="M23.1577 41.675C24.117 41.675 24.8946 40.9063 24.8946 39.9581C24.8946 39.0098 24.117 38.2411 23.1577 38.2411C22.1985 38.2411 21.4209 39.0098 21.4209 39.9581C21.4209 40.9063 22.1985 41.675 23.1577 41.675Z" fill="#FF0000"/>
<path d="M29.5786 41.6749C30.5379 41.6749 31.3155 40.9062 31.3155 39.9579C31.3155 39.0097 30.5379 38.241 29.5786 38.241C28.6194 38.241 27.8418 39.0097 27.8418 39.9579C27.8418 40.9062 28.6194 41.6749 29.5786 41.6749Z" fill="#FF0000"/>
</svg>
