<svg width="60" height="60" viewBox="0 0 60 60" fill="none" xmlns="http://www.w3.org/2000/svg">
<path d="M2.90332 0.967009V2.90249H4.8388V1.93475H18.3872V16.4509H12.4027C12.2056 15.8852 11.8374 15.3949 11.3491 15.0479C10.8607 14.7009 10.2765 14.5145 9.67751 14.5145C9.07848 14.5145 8.49429 14.7009 8.00598 15.0479C7.51766 15.3949 7.14943 15.8852 6.95235 16.4509H4.8388V10.6444H2.90332V17.4186C2.90332 17.6753 3.00528 17.9214 3.18677 18.1029C3.36825 18.2844 3.6144 18.3864 3.87106 18.3864H6.95235C7.14943 18.9521 7.51766 19.4424 8.00598 19.7894C8.49429 20.1363 9.07848 20.3228 9.67751 20.3228C10.2765 20.3228 10.8607 20.1363 11.3491 19.7894C11.8374 19.4424 12.2056 18.9521 12.4027 18.3864H21.4685C21.6656 18.9521 22.0338 19.4424 22.5221 19.7894C23.0104 20.1363 23.5946 20.3228 24.1936 20.3228C24.7927 20.3228 25.3769 20.1363 25.8652 19.7894C26.3535 19.4424 26.7217 18.9521 26.9188 18.3864H29.0324C29.289 18.3864 29.5352 18.2844 29.7167 18.1029C29.8981 17.9214 30.0001 17.6753 30.0001 17.4186V8.70894C30.0002 8.48911 29.9255 8.27579 29.7882 8.10411L25.9172 3.2654C25.8265 3.1521 25.7115 3.06066 25.5806 2.99785C25.4498 2.93503 25.3065 2.90244 25.1614 2.90249H20.3227V0.967009C20.3227 0.710348 20.2207 0.464199 20.0392 0.282713C19.8577 0.101226 19.6116 -0.000732422 19.3549 -0.000732422H3.87106C3.6144 -0.000732422 3.36825 0.101226 3.18677 0.282713C3.00528 0.464199 2.90332 0.710348 2.90332 0.967009ZM9.67751 18.3864C9.48611 18.3864 9.29901 18.3296 9.13986 18.2233C8.98072 18.1169 8.85668 17.9658 8.78344 17.789C8.71019 17.6121 8.69103 17.4175 8.72837 17.2298C8.76571 17.0421 8.85788 16.8697 8.99322 16.7343C9.12856 16.599 9.30099 16.5068 9.48872 16.4695C9.67644 16.4321 9.87102 16.4513 10.0479 16.5245C10.2247 16.5978 10.3758 16.7218 10.4822 16.881C10.5885 17.0401 10.6453 17.2272 10.6453 17.4186C10.6453 17.6753 10.5433 17.9214 10.3618 18.1029C10.1803 18.2844 9.93418 18.3864 9.67751 18.3864ZM24.1936 18.3864C24.0022 18.3864 23.8151 18.3296 23.656 18.2233C23.4969 18.1169 23.3728 17.9658 23.2996 17.789C23.2263 17.6121 23.2072 17.4175 23.2445 17.2298C23.2818 17.0421 23.374 16.8697 23.5093 16.7343C23.6447 16.599 23.8171 16.5068 24.0048 16.4695C24.1926 16.4321 24.3871 16.4513 24.564 16.5245C24.7408 16.5978 24.892 16.7218 24.9983 16.881C25.1046 17.0401 25.1614 17.2272 25.1614 17.4186C25.1614 17.6753 25.0594 17.9214 24.8779 18.1029C24.6965 18.2844 24.4503 18.3864 24.1936 18.3864ZM23.2259 4.83798H24.6969L27.0194 7.7412H23.2259V4.83798ZM20.3227 4.83798H21.2904V8.70894C21.2904 8.96561 21.3924 9.21175 21.5739 9.39324C21.7553 9.57473 22.0015 9.67669 22.2582 9.67669H28.0646V16.4509H26.9188C26.7217 15.8852 26.3535 15.3949 25.8652 15.0479C25.3769 14.7009 24.7927 14.5145 24.1936 14.5145C23.5946 14.5145 23.0104 14.7009 22.5221 15.0479C22.0338 15.3949 21.6656 15.8852 21.4685 16.4509H20.3227V4.83798Z" fill="#FF0000"/>
<path d="M4.83871 3.87036H0V5.80585H4.83871V3.87036Z" fill="#FF0000"/>
<path d="M6.77426 7.74121H1.93555V9.67669H6.77426V7.74121Z" fill="#FF0000"/>
<path d="M54.1935 11.6123C54.1935 11.3556 54.0916 11.1095 53.9101 10.928C53.7286 10.7465 53.4825 10.6445 53.2258 10.6445H37.7419V12.58H52.2581V25.1607H6.77419C6.51753 25.1607 6.27138 25.2626 6.0899 25.4441C5.90841 25.6256 5.80645 25.8717 5.80645 26.1284V33.4697L4.55516 32.2184L3.18677 33.5868L6.09 36.49C6.27148 36.6714 6.51758 36.7734 6.77419 36.7734C7.0308 36.7734 7.27691 36.6714 7.45839 36.49L10.3616 33.5868L8.99323 32.2184L7.74194 33.4697V27.0961H29.0323V33.4697L27.781 32.2184L26.4126 33.5868L29.3158 36.49C29.4973 36.6714 29.7434 36.7734 30 36.7734C30.2566 36.7734 30.5027 36.6714 30.6842 36.49L33.5874 33.5868L32.219 32.2184L30.9677 33.4697V27.0961H52.2581V33.4697L51.0068 32.2184L49.6384 33.5868L52.5416 36.49C52.7231 36.6714 52.9692 36.7734 53.2258 36.7734C53.4824 36.7734 53.7285 36.6714 53.91 36.49L56.8132 33.5868L55.4448 32.2184L54.1935 33.4697V11.6123ZM57.0968 47.4187H55.9297C56.6385 46.8573 57.1549 46.0892 57.4074 45.221C57.6599 44.3527 57.6359 43.4274 57.3386 42.5735C57.0414 41.7195 56.4858 40.9793 55.7488 40.4554C55.0118 39.9316 54.13 39.6501 53.2258 39.6501C52.3216 39.6501 51.4398 39.9316 50.7028 40.4554C49.9658 40.9793 49.4102 41.7195 49.113 42.5735C48.8157 43.4274 48.7917 44.3527 49.0442 45.221C49.2967 46.0892 49.8131 46.8573 50.5219 47.4187H49.3548C48.5849 47.4187 47.8464 47.7246 47.3019 48.2691C46.7575 48.8135 46.4516 49.552 46.4516 50.322V59.0316C46.4516 59.2883 46.5536 59.5344 46.7351 59.7159C46.9165 59.8974 47.1627 59.9994 47.4194 59.9994H59.0323C59.2889 59.9994 59.5351 59.8974 59.7166 59.7159C59.898 59.5344 60 59.2883 60 59.0316V50.322C60 49.552 59.6941 48.8135 59.1497 48.2691C58.6052 47.7246 57.8668 47.4187 57.0968 47.4187ZM53.2258 41.6123C53.7043 41.6123 54.1721 41.7542 54.5699 42.02C54.9678 42.2859 55.2779 42.6637 55.461 43.1058C55.6441 43.5479 55.692 44.0343 55.5987 44.5036C55.5053 44.9729 55.2749 45.404 54.9366 45.7424C54.5982 46.0807 54.1671 46.3111 53.6978 46.4045C53.2285 46.4978 52.742 46.4499 52.3 46.2668C51.8579 46.0837 51.48 45.7736 51.2142 45.3758C50.9483 44.9779 50.8064 44.5101 50.8064 44.0316C50.8064 43.39 51.0613 42.7746 51.5151 42.3209C51.9688 41.8672 52.5842 41.6123 53.2258 41.6123ZM58.0645 58.0639H48.3871V50.322C48.3871 50.0653 48.4891 49.8191 48.6705 49.6377C48.852 49.4562 49.0982 49.3542 49.3548 49.3542H57.0968C57.3534 49.3542 57.5996 49.4562 57.7811 49.6377C57.9626 49.8191 58.0645 50.0653 58.0645 50.322V58.0639ZM23.2258 50.322V59.0316C23.2258 59.2883 23.3278 59.5344 23.5093 59.7159C23.6907 59.8974 23.9369 59.9994 24.1935 59.9994H35.8064C36.0631 59.9994 36.3093 59.8974 36.4907 59.7159C36.6722 59.5344 36.7742 59.2883 36.7742 59.0316V50.322C36.7742 49.552 36.4683 48.8135 35.9239 48.2691C35.3794 47.7246 34.6409 47.4187 33.871 47.4187H32.7039C33.4127 46.8573 33.9291 46.0892 34.1816 45.221C34.4341 44.3527 34.4101 43.4274 34.1128 42.5735C33.8156 41.7195 33.26 40.9793 32.523 40.4554C31.786 39.9316 30.9042 39.6501 30 39.6501C29.0958 39.6501 28.214 39.9316 27.477 40.4554C26.74 40.9793 26.1844 41.7195 25.8872 42.5735C25.5899 43.4274 25.5659 44.3527 25.8184 45.221C26.0709 46.0892 26.5873 46.8573 27.2961 47.4187H26.129C25.359 47.4187 24.6206 47.7246 24.0761 48.2691C23.5317 48.8135 23.2258 49.552 23.2258 50.322ZM30 41.6123C30.4785 41.6123 30.9463 41.7542 31.3441 42.02C31.742 42.2859 32.0521 42.6637 32.2352 43.1058C32.4183 43.5479 32.4662 44.0343 32.3729 44.5036C32.2795 44.9729 32.0491 45.404 31.7107 45.7424C31.3724 46.0807 30.9413 46.3111 30.472 46.4045C30.0027 46.4978 29.5162 46.4499 29.0742 46.2668C28.6321 46.0837 28.2542 45.7736 27.9884 45.3758C27.7225 44.9779 27.5806 44.5101 27.5806 44.0316C27.5806 43.39 27.8355 42.7746 28.2893 42.3209C28.743 41.8672 29.3583 41.6123 30 41.6123ZM33.871 49.3542C34.1276 49.3542 34.3738 49.4562 34.5553 49.6377C34.7368 49.8191 34.8387 50.0653 34.8387 50.322V58.0639H25.1613V50.322C25.1613 50.0653 25.2632 49.8191 25.4447 49.6377C25.6262 49.4562 25.8724 49.3542 26.129 49.3542H33.871ZM0.967742 59.9994H12.5806C12.8373 59.9994 13.0835 59.8974 13.2649 59.7159C13.4464 59.5344 13.5484 59.2883 13.5484 59.0316V50.322C13.5484 49.552 13.2425 48.8135 12.6981 48.2691C12.1536 47.7246 11.4151 47.4187 10.6452 47.4187H9.47806C10.1869 46.8573 10.7033 46.0892 10.9558 45.221C11.2083 44.3527 11.1843 43.4274 10.887 42.5735C10.5898 41.7195 10.0342 40.9793 9.29716 40.4554C8.56017 39.9316 7.67839 39.6501 6.77419 39.6501C5.87 39.6501 4.98822 39.9316 4.25122 40.4554C3.51423 40.9793 2.95857 41.7195 2.66135 42.5735C2.36413 43.4274 2.34009 44.3527 2.59257 45.221C2.84505 46.0892 3.36152 46.8573 4.07032 47.4187H2.90323C2.13324 47.4187 1.3948 47.7246 0.850335 48.2691C0.305875 48.8135 0 49.552 0 50.322V59.0316C0 59.2883 0.101958 59.5344 0.283445 59.7159C0.464932 59.8974 0.711081 59.9994 0.967742 59.9994ZM6.77419 41.6123C7.2527 41.6123 7.72045 41.7542 8.11831 42.02C8.51618 42.2859 8.82627 42.6637 9.00939 43.1058C9.1925 43.5479 9.24041 44.0343 9.14706 44.5036C9.05371 44.9729 8.82329 45.404 8.48494 45.7424C8.14658 46.0807 7.7155 46.3111 7.24619 46.4045C6.77688 46.4978 6.29043 46.4499 5.84835 46.2668C5.40627 46.0837 5.02842 45.7736 4.76257 45.3758C4.49673 44.9779 4.35484 44.5101 4.35484 44.0316C4.35484 43.39 4.60973 42.7746 5.06345 42.3209C5.51717 41.8672 6.13254 41.6123 6.77419 41.6123ZM1.93548 50.322C1.93548 50.0653 2.03744 49.8191 2.21893 49.6377C2.40042 49.4562 2.64656 49.3542 2.90323 49.3542H10.6452C10.9018 49.3542 11.148 49.4562 11.3295 49.6377C11.5109 49.8191 11.6129 50.0653 11.6129 50.322V58.0639H1.93548V50.322Z" fill="black"/>
<path d="M34.8388 10.6445H32.9033V12.58H34.8388V10.6445Z" fill="#FF0000"/>
</svg>
