<svg width="40" height="40" viewBox="0 0 40 40" fill="none" xmlns="http://www.w3.org/2000/svg">
<circle cx="20" cy="20" r="20" fill="white"/>
<path d="M25.9614 17.5478C25.9546 17.0431 25.8602 16.5434 25.6821 16.0711C25.5278 15.6727 25.292 15.3109 24.9899 15.0088C24.6878 14.7067 24.326 14.4709 23.9276 14.3165C23.4614 14.1415 22.9688 14.0469 22.4709 14.0367C21.8299 14.008 21.6266 14 19.9993 14C18.3721 14 18.1635 14 17.5271 14.0367C17.0294 14.0469 16.5371 14.1416 16.0711 14.3165C15.6726 14.4708 15.3108 14.7065 15.0086 15.0086C14.7065 15.3108 14.4708 15.6726 14.3165 16.0711C14.1412 16.537 14.0467 17.0294 14.0373 17.5271C14.0087 18.1688 14 18.3721 14 19.9993C14 21.6266 14 21.8345 14.0373 22.4716C14.0473 22.97 14.1413 23.4618 14.3165 23.9289C14.471 24.3273 14.7069 24.689 15.0092 24.991C15.3114 25.293 15.6733 25.5286 16.0717 25.6828C16.5365 25.8649 17.0289 25.9663 17.5278 25.9827C18.1695 26.0113 18.3727 26.02 20 26.02C21.6273 26.02 21.8359 26.02 22.4722 25.9827C22.9701 25.9729 23.4627 25.8785 23.9289 25.7035C24.3272 25.5489 24.6889 25.3131 24.991 25.011C25.2931 24.7089 25.5289 24.3472 25.6835 23.9489C25.8587 23.4825 25.9527 22.9907 25.9627 22.4916C25.9913 21.8505 26 21.6473 26 20.0193C25.9987 18.392 25.9987 18.1855 25.9614 17.5478ZM19.9953 23.0766C18.2934 23.0766 16.9147 21.6979 16.9147 19.996C16.9147 18.2941 18.2934 16.9154 19.9953 16.9154C20.8124 16.9154 21.5959 17.2399 22.1737 17.8177C22.7514 18.3954 23.076 19.179 23.076 19.996C23.076 20.813 22.7514 21.5966 22.1737 22.1743C21.5959 22.7521 20.8124 23.0766 19.9953 23.0766ZM23.1986 17.5198C23.1042 17.5199 23.0108 17.5013 22.9236 17.4653C22.8364 17.4292 22.7572 17.3763 22.6904 17.3096C22.6237 17.2428 22.5708 17.1636 22.5347 17.0764C22.4987 16.9892 22.4801 16.8958 22.4802 16.8014C22.4802 16.7071 22.4988 16.6138 22.5349 16.5266C22.571 16.4395 22.6239 16.3604 22.6905 16.2937C22.7572 16.227 22.8364 16.1741 22.9235 16.1381C23.0106 16.102 23.104 16.0834 23.1982 16.0834C23.2925 16.0834 23.3859 16.102 23.473 16.1381C23.5601 16.1741 23.6393 16.227 23.706 16.2937C23.7726 16.3604 23.8255 16.4395 23.8616 16.5266C23.8977 16.6138 23.9163 16.7071 23.9163 16.8014C23.9163 17.1986 23.5951 17.5198 23.1986 17.5198Z" fill="#FF0000"/>
<path d="M19.9953 21.9973C21.1004 21.9973 21.9964 21.1014 21.9964 19.9962C21.9964 18.891 21.1004 17.9951 19.9953 17.9951C18.8901 17.9951 17.9941 18.891 17.9941 19.9962C17.9941 21.1014 18.8901 21.9973 19.9953 21.9973Z" fill="white"/>
</svg>
