<svg width="221" height="32" viewBox="0 0 221 32" fill="none" xmlns="http://www.w3.org/2000/svg">
<path fill-rule="evenodd" clip-rule="evenodd" d="M10.1221 31.9996H15.229L24.5651 16L15.229 0H10.1221L19.4579 16L10.1221 31.9996Z" fill="#FF0000"/>
<path fill-rule="evenodd" clip-rule="evenodd" d="M49.2825 31.9999H54.2768L47.2876 19.8853L48.3319 19.453C52.2172 17.8455 54.1765 14.2938 54.1765 10.1742C54.1765 3.75012 49.5985 9.59189e-05 43.3712 9.59189e-05H31.7891V4.23155H43.2255C46.7875 4.23155 49.4595 6.53605 49.4595 10.1742C49.4595 13.8059 46.7968 16.1659 43.2255 16.1659H31.7891V32H36.2632V20.3488H42.5347L49.2825 31.9999ZM176.737 18.0548L175.303 22.2376H181.597L184.982 31.9999H190.17L178.467 0H173.251L161.548 31.9999H166.84L175.859 5.68666L180.149 18.0603L176.737 18.0548ZM154.326 0.806562L138.617 18.1565L122.957 0.860128V31.9999H127.431V12.1146L138.595 24.1498L149.851 12.1324V31.9999H154.326V0.806562ZM61.4996 27.8168V31.9999H82.0915V27.8168H61.4996ZM81.7996 13.9325H61.4996V18.1159H81.7996V13.9325ZM81.7996 0H61.4996V4.23145H81.7996V0ZM89.0226 0V4.23145H98.8084C106.036 4.23145 111.305 8.5733 111.305 16C111.305 23.4466 106.069 27.8168 98.8084 27.8168H93.4971V18.059H89.0228V31.9999C92.333 31.9999 95.6438 31.9999 98.9544 31.9999C108.893 31.9999 115.78 26.1378 115.78 16C115.78 5.88779 108.87 0 98.9544 0C95.6438 0 92.3329 0 89.0226 0Z" fill="black"/>
<path fill-rule="evenodd" clip-rule="evenodd" d="M0 31.9996H5.10691L14.4431 16L5.10691 0H0L9.33617 16L0 31.9996Z" fill="#FF0000"/>
<path fill-rule="evenodd" clip-rule="evenodd" d="M197.133 31.9996H202.24L211.576 16L202.24 0H197.133L206.469 16L197.133 31.9996Z" fill="black"/>
<path fill-rule="evenodd" clip-rule="evenodd" d="M220.912 31.9996H215.805L211.58 24.7603L214.134 20.3842L220.912 31.9996ZM211.58 7.23951L215.805 0H220.912L214.134 11.6157L211.58 7.23951Z" fill="#FF0000"/>
</svg>
