<svg width="50" height="50" viewBox="0 0 50 50" fill="none" xmlns="http://www.w3.org/2000/svg">
<rect x="0.9" y="21.9" width="48.2" height="27.2" rx="1.1" stroke="black" stroke-width="1.8"/>
<path d="M24.9998 42.1055C23.6986 42.1055 22.4266 41.7196 21.3447 40.9967C20.2628 40.2738 19.4196 39.2463 18.9216 38.0442C18.4237 36.842 18.2934 35.5192 18.5473 34.243C18.8011 32.9668 19.4277 31.7946 20.3478 30.8745C21.2679 29.9544 22.4401 29.3278 23.7163 29.074C24.9925 28.8201 26.3153 28.9504 27.5174 29.4484C28.7196 29.9463 29.7471 30.7896 30.47 31.8715C31.1929 32.9534 31.5787 34.2253 31.5787 35.5265C31.5787 37.2714 30.8856 38.9447 29.6518 40.1785C28.418 41.4123 26.7446 42.1055 24.9998 42.1055ZM24.9998 31.5792C24.2191 31.5792 23.4559 31.8107 22.8068 32.2444C22.1576 32.6781 21.6517 33.2946 21.3529 34.0159C21.0541 34.7372 20.976 35.5309 21.1283 36.2966C21.2806 37.0623 21.6565 37.7657 22.2086 38.3177C22.7606 38.8698 23.464 39.2457 24.2297 39.398C24.9954 39.5504 25.7891 39.4722 26.5104 39.1734C27.2317 38.8746 27.8482 38.3687 28.2819 37.7196C28.7157 37.0704 28.9472 36.3072 28.9472 35.5265C28.9472 34.4796 28.5313 33.4756 27.791 32.7353C27.0507 31.995 26.0467 31.5792 24.9998 31.5792ZM40.7893 36.8423H38.1577C37.8087 36.8423 37.474 36.7037 37.2273 36.4569C36.9805 36.2102 36.8419 35.8755 36.8419 35.5265C36.8419 35.1776 36.9805 34.8429 37.2273 34.5961C37.474 34.3494 37.8087 34.2107 38.1577 34.2107H40.7893C41.1382 34.2107 41.4729 34.3494 41.7197 34.5961C41.9664 34.8429 42.1051 35.1776 42.1051 35.5265C42.1051 35.8755 41.9664 36.2102 41.7197 36.4569C41.4729 36.7037 41.1382 36.8423 40.7893 36.8423ZM11.8419 36.8423H9.21032C8.86135 36.8423 8.52668 36.7037 8.27992 36.4569C8.03316 36.2102 7.89453 35.8755 7.89453 35.5265C7.89453 35.1776 8.03316 34.8429 8.27992 34.5961C8.52668 34.3494 8.86135 34.2107 9.21032 34.2107H11.8419C12.1909 34.2107 12.5255 34.3494 12.7723 34.5961C13.0191 34.8429 13.1577 35.1776 13.1577 35.5265C13.1577 35.8755 13.0191 36.2102 12.7723 36.4569C12.5255 36.7037 12.1909 36.8423 11.8419 36.8423ZM19.7366 7.89494C19.5641 7.89704 19.393 7.86301 19.2343 7.79503C19.0757 7.72705 18.9331 7.62662 18.8156 7.5002C18.6897 7.38207 18.5894 7.23939 18.5208 7.08098C18.4522 6.92256 18.4169 6.75177 18.4169 6.57915C18.4169 6.40653 18.4522 6.23574 18.5208 6.07732C18.5894 5.91891 18.6897 5.77623 18.8156 5.6581L24.0787 0.394941C24.323 0.150662 24.6543 0.0134277 24.9998 0.0134277C25.3453 0.0134277 25.6766 0.150662 25.9208 0.394941C26.1651 0.639219 26.3024 0.970531 26.3024 1.31599C26.3024 1.66145 26.1651 1.99277 25.9208 2.23705L20.6577 7.5002C20.5402 7.62662 20.3976 7.72705 20.2389 7.79503C20.0803 7.86301 19.9092 7.89704 19.7366 7.89494Z" fill="#FF0000"/>
<path d="M30.263 7.89494C30.0904 7.89704 29.9193 7.86301 29.7607 7.79503C29.6021 7.72705 29.4594 7.62662 29.3419 7.5002L24.0788 2.23705C23.8345 1.99277 23.6973 1.66145 23.6973 1.31599C23.6973 0.970531 23.8345 0.639219 24.0788 0.394941C24.3231 0.150662 24.6544 0.0134277 24.9998 0.0134277C25.3453 0.0134277 25.6766 0.150662 25.9209 0.394941L31.184 5.6581C31.3099 5.77623 31.4102 5.91891 31.4788 6.07732C31.5474 6.23574 31.5828 6.40653 31.5828 6.57915C31.5828 6.75177 31.5474 6.92256 31.4788 7.08098C31.4102 7.23939 31.3099 7.38207 31.184 7.5002C31.0666 7.62662 30.9239 7.72705 30.7653 7.79503C30.6067 7.86301 30.4356 7.89704 30.263 7.89494Z" fill="#FF0000"/>
<path d="M24.9994 18.4211C24.6504 18.4211 24.3157 18.2824 24.069 18.0357C23.8222 17.7889 23.6836 17.4542 23.6836 17.1053V1.31579C23.6836 0.96682 23.8222 0.632144 24.069 0.385386C24.3157 0.138628 24.6504 0 24.9994 0C25.3484 0 25.683 0.138628 25.9298 0.385386C26.1765 0.632144 26.3152 0.96682 26.3152 1.31579V17.1053C26.3152 17.4542 26.1765 17.7889 25.9298 18.0357C25.683 18.2824 25.3484 18.4211 24.9994 18.4211Z" fill="#FF0000"/>
</svg>
