<svg width="50" height="29" viewBox="0 0 50 29" fill="none" xmlns="http://www.w3.org/2000/svg">
<path d="M49.7872 28.7234H0.212766L0.106383 27.766C2.37784e-08 26.8085 0 25.9574 0 25C0 11.1702 11.1702 0 25 0C38.8298 0 50 11.1702 50 25C50 25.8511 50 26.8085 49.8936 27.766L49.7872 28.7234ZM2.23404 26.5957H47.8723C47.8723 26.0638 47.9787 25.5319 47.9787 25C47.9787 12.3404 37.766 2.12766 25.1064 2.12766C12.3404 2.12766 2.12766 12.4468 2.12766 25C2.12766 25.5319 2.12766 26.0638 2.23404 26.5957Z" fill="black"/>
<path d="M42.8724 28.7234H37.6597V26.5958H40.9575C41.0639 26.0639 41.0639 25.5319 41.0639 25C41.0639 24.4681 41.0639 23.9362 40.9575 23.5107L43.0852 23.2979C43.0852 23.8298 43.1916 24.4681 43.1916 25C43.1916 25.8511 43.0852 26.8085 42.9788 27.766L42.8724 28.7234ZM39.0426 17.1277C37.9788 15.2128 36.3831 13.4043 34.5746 12.1277L35.8511 10.4256C37.8724 11.9149 39.6809 13.9362 40.9575 16.1702L39.0426 17.1277ZM11.0639 17.0213L9.2554 15.9575C10.532 13.7234 12.2341 11.8085 14.3618 10.3192L15.6384 12.0213C13.7235 13.4043 12.1277 15.1064 11.0639 17.0213ZM28.4043 9.25536C26.1703 8.82982 23.8299 8.82982 21.7022 9.25536L21.2767 7.1277C23.7235 6.59578 26.3831 6.59578 28.9363 7.1277L28.4043 9.25536ZM12.3405 28.7234H7.12774L7.02136 27.8724C6.91498 26.8085 6.80859 25.9575 6.80859 25.1064C6.80859 24.5745 6.80859 23.9362 6.91498 23.4043L9.04264 23.6171C9.04264 24.149 8.93625 24.5745 8.93625 25.1064C8.93625 25.6383 8.93625 26.1702 9.04264 26.7022H12.3405V28.7234ZM20.7448 26.5958H29.149V28.7234H20.7448V26.5958Z" fill="#FF0000"/>
<path d="M29.3672 14.3718L31.3302 15.1926L25.9541 28.0501L23.9912 27.2293L29.3672 14.3718Z" fill="#010101"/>
</svg>
