<svg width="65" height="65" viewBox="0 0 65 65" fill="none" xmlns="http://www.w3.org/2000/svg">
<path d="M59.9219 24.3103H58.8199C58.2839 17.6877 55.2787 11.5098 50.4019 7.00537C45.5251 2.50093 39.134 0 32.5 0C25.8659 0 19.475 2.50093 14.5981 7.00537C9.72134 11.5098 6.71607 17.6877 6.18008 24.3103H5.07812C3.73132 24.3103 2.43968 24.8461 1.48735 25.7999C0.535015 26.7537 0 28.0474 0 29.3962L0 33.465C0 34.8139 0.535015 36.1075 1.48735 37.0613C2.43968 38.0151 3.73132 38.551 5.07812 38.551H6.27656C6.94397 44.3998 9.54549 49.857 13.6671 54.0541C17.7887 58.2512 23.1936 60.947 29.0215 61.7125C29.2113 62.6842 29.7484 63.5533 30.5322 64.1568C31.3159 64.7603 32.2925 65.0569 33.2789 64.991C34.2654 64.925 35.1939 64.5011 35.8906 63.7986C36.5873 63.0961 37.0044 62.1633 37.0636 61.1749C37.1228 60.1865 36.8201 59.2105 36.2123 58.4296C35.6044 57.6487 34.7331 57.1166 33.7617 56.933C32.7902 56.7494 31.7852 56.9269 30.935 57.4322C30.0848 57.9376 29.4478 58.7361 29.1434 59.6781C23.313 58.8749 17.9707 55.9826 14.1062 51.537C10.2417 47.0914 8.11677 41.3938 8.125 35.4994V26.3447C8.125 19.87 10.6931 13.6606 15.2643 9.0823C19.8355 4.50404 26.0353 1.932 32.5 1.932C38.9647 1.932 45.1645 4.50404 49.7357 9.0823C54.3069 13.6606 56.875 19.87 56.875 26.3447V37.5338C56.875 37.8036 56.982 38.0623 57.1725 38.2531C57.3629 38.4438 57.6213 38.551 57.8906 38.551H59.9219C61.2687 38.551 62.5603 38.0151 63.5127 37.0613C64.465 36.1075 65 34.8139 65 33.465V29.3962C65 28.0474 64.465 26.7537 63.5127 25.7999C62.5603 24.8461 61.2687 24.3103 59.9219 24.3103ZM33.0078 58.8949C33.4096 58.8949 33.8023 59.0142 34.1363 59.2377C34.4704 59.4613 34.7307 59.779 34.8844 60.1507C35.0382 60.5225 35.0784 60.9315 35 61.3261C34.9217 61.7208 34.7282 62.0833 34.4441 62.3678C34.16 62.6523 33.7981 62.8461 33.4041 62.9245C33.0101 63.003 32.6017 62.9628 32.2305 62.8088C31.8593 62.6548 31.5421 62.394 31.3189 62.0595C31.0957 61.7249 30.9766 61.3316 30.9766 60.9292C30.9766 60.3897 31.1906 59.8722 31.5715 59.4907C31.9524 59.1092 32.4691 58.8949 33.0078 58.8949ZM6.09375 36.5166H5.07812C4.27004 36.5166 3.49506 36.1951 2.92366 35.6228C2.35226 35.0505 2.03125 34.2743 2.03125 33.465V29.3962C2.03125 28.5869 2.35226 27.8107 2.92366 27.2384C3.49506 26.6662 4.27004 26.3447 5.07812 26.3447H6.09375V36.5166ZM62.9688 33.465C62.9688 34.2743 62.6477 35.0505 62.0763 35.6228C61.5049 36.1951 60.73 36.5166 59.9219 36.5166H58.9062V26.3447H59.9219C60.73 26.3447 61.5049 26.6662 62.0763 27.2384C62.6477 27.8107 62.9688 28.5869 62.9688 29.3962V33.465Z" fill="black"/>
<path d="M53.411 33.3736C53.411 33.2719 53.4415 33.1753 53.4618 33.0735C53.4973 32.8752 53.538 32.6768 53.5684 32.4836L53.6294 32.0563C53.6598 31.8478 53.6903 31.6393 53.7106 31.4308C53.7309 31.2222 53.7411 31.1002 53.7563 30.9222C53.7716 30.7442 53.7868 30.5712 53.797 30.4136C53.797 30.0677 53.8274 29.727 53.8274 29.3964C53.8274 16.8188 45.0575 8.03531 32.4993 8.03531C29.69 8.00467 26.9028 8.53626 24.3013 9.59891C21.6999 10.6616 19.3365 12.2338 17.3499 14.2235C15.3632 16.2132 13.7934 18.5803 12.7324 21.1857C11.6714 23.7912 11.1406 26.5827 11.1712 29.3964C11.1712 29.7168 11.1712 30.0372 11.2016 30.3678C11.2016 30.4695 11.2016 30.5763 11.2016 30.6831C11.2016 30.9222 11.2372 31.1612 11.2677 31.4003C11.2677 31.4969 11.2677 31.5935 11.2981 31.6952C11.3337 32.0055 11.3794 32.3208 11.4302 32.6362C13.2888 43.4693 23.6329 54.8262 32.4993 54.8262C41.1321 54.8262 51.2071 44.0033 53.3907 33.4652C53.3958 33.4143 53.4059 33.394 53.411 33.3736ZM32.4993 10.0697C43.6712 10.0697 51.5473 17.7749 51.7962 28.8878C50.4347 26.5248 48.4656 24.5707 46.0939 23.2289C43.7221 21.8871 41.0346 21.2068 38.3111 21.2587C35.5877 21.3107 32.928 22.093 30.609 23.5242C28.29 24.9555 26.3965 26.9832 25.1259 29.3964C23.1352 26.7212 23.6024 22.7032 23.6024 22.6626C23.6213 22.5183 23.6091 22.3717 23.5666 22.2326C23.5241 22.0935 23.4523 21.9651 23.356 21.8562C23.2597 21.7472 23.1413 21.6602 23.0086 21.6011C22.8759 21.5419 22.732 21.5119 22.5868 21.5131C20.786 21.5234 19.0143 21.9695 17.4227 22.8134C15.8312 23.6573 14.4669 24.8741 13.4462 26.3601C14.1208 21.7974 16.4222 17.6337 19.9248 14.639C23.4274 11.6443 27.8943 10.0212 32.4993 10.0697ZM32.4993 52.7918C24.6536 52.7918 15.1829 42.2029 13.4716 32.4073C13.5543 30.2246 14.4085 28.1422 15.8817 26.5316C17.355 24.921 19.3515 23.8869 21.5153 23.6136C21.5153 25.6023 21.8403 29.5591 24.7704 31.9597C24.8937 32.0606 25.0389 32.131 25.1943 32.1654C25.3497 32.1997 25.5111 32.1969 25.6653 32.1573C25.8194 32.1177 25.9622 32.0424 26.082 31.9374C26.2017 31.8324 26.2952 31.7007 26.3548 31.5528C27.3987 28.9783 29.2259 26.7986 31.5769 25.3231C33.9278 23.8476 36.6832 23.1514 39.4517 23.3332C42.2202 23.5151 44.8611 24.5658 46.9996 26.3361C49.138 28.1065 50.6653 30.5066 51.3645 33.1956C49.3028 42.7623 40.1165 52.7918 32.4993 52.7918Z" fill="#FF0000"/>
<path d="M39.1023 42.5179C36.7918 43.9166 34.532 44.654 32.5008 44.654C30.4695 44.654 28.2097 43.9166 25.8992 42.5179C25.7856 42.4253 25.6534 42.3583 25.5116 42.3217C25.3698 42.285 25.2217 42.2795 25.0776 42.3056C24.9334 42.3316 24.7966 42.3886 24.6765 42.4725C24.5564 42.5565 24.4558 42.6655 24.3817 42.792C24.3077 42.9185 24.2618 43.0596 24.2472 43.2056C24.2327 43.3516 24.2498 43.499 24.2975 43.6377C24.3451 43.7764 24.4222 43.9031 24.5234 44.0092C24.6245 44.1153 24.7474 44.1982 24.8836 44.2522C27.4683 45.8492 30.109 46.6884 32.5008 46.6884C34.8925 46.6884 37.5332 45.8492 40.1179 44.2522C40.2541 44.1982 40.377 44.1153 40.4781 44.0092C40.5793 43.9031 40.6564 43.7764 40.704 43.6377C40.7517 43.499 40.7688 43.3516 40.7543 43.2056C40.7397 43.0596 40.6938 42.9185 40.6198 42.792C40.5457 42.6655 40.4451 42.5565 40.325 42.4725C40.2049 42.3886 40.0681 42.3316 39.9239 42.3056C39.7798 42.2795 39.6317 42.285 39.4899 42.3217C39.3481 42.3583 39.2159 42.4253 39.1023 42.5179Z" fill="black"/>
</svg>
