<svg width="48" height="60" viewBox="0 0 48 60" fill="none" xmlns="http://www.w3.org/2000/svg">
<path d="M33.1078 0H7.21989C3.23893 0 0 3.21281 0 7.16167V52.8383C0 56.7872 3.23893 60 7.21989 60H40.7801C44.7604 60 48 56.7872 48 52.8383V16.5096L33.1078 0ZM33.6481 3.50336L44.8392 15.911H33.6481V3.50336ZM46.0473 52.8383C46.0473 55.7193 43.6838 58.063 40.7801 58.063H7.21989C4.31553 58.063 1.95273 55.7193 1.95273 52.8383V7.16167C1.95273 4.28073 4.31553 1.93698 7.21989 1.93698H31.6954V17.848H46.0473V52.8383Z" fill="black"/>
<path d="M31.2404 28.3549C26.9229 25.0123 20.6885 24.9406 16.278 28.526C12.4487 31.64 10.9516 36.6742 12.4636 41.352L14.3233 40.7606C13.0573 36.8453 14.3103 32.6304 17.5153 30.0239C21.1943 27.0351 26.3885 27.0842 30.0004 29.8522L25.8333 31.4889L26.5519 33.2897L31.5522 31.3256C31.5776 31.3553 31.6043 31.3804 31.6297 31.4101L31.9017 31.1887L33.6742 30.4927L32.1419 23.0488L30.2289 23.4362L31.2404 28.3549ZM30.2335 45.4081C26.4282 48.504 20.9984 48.3439 17.3767 45.2822L21.1721 43.3575L20.2837 41.6322L13.4667 45.0898L15.7065 52.3567L17.5739 51.7904L15.9857 46.6381C18.217 48.5802 21.0368 49.5958 23.8845 49.5952C26.5578 49.5952 29.248 48.7151 31.4715 46.9067C35.401 43.7113 36.8734 38.3839 35.1341 33.6493L33.2999 34.3124C34.754 38.2748 33.5225 42.7337 30.2335 45.4081Z" fill="#FF0000"/>
</svg>
