<svg width="65" height="65" viewBox="0 0 65 65" fill="none" xmlns="http://www.w3.org/2000/svg">
<path d="M35.7503 6.50016H29.2503C28.6523 6.50016 28.167 6.01483 28.167 5.41683C28.167 4.81883 28.6523 4.3335 29.2503 4.3335H35.7503C36.3483 4.3335 36.8337 4.81883 36.8337 5.41683C36.8337 6.01483 36.3483 6.50016 35.7503 6.50016ZM16.2503 32.5002C15.6523 32.5002 15.167 32.017 15.167 31.4168V18.4168C15.167 17.8188 15.6523 17.3335 16.2503 17.3335C16.8483 17.3335 17.3337 17.8188 17.3337 18.4168V31.4168C17.3337 32.017 16.8483 32.5002 16.2503 32.5002ZM44.417 65.0002H20.5837C17.5958 65.0002 15.167 62.5692 15.167 59.5835V35.7502C15.167 35.15 15.6523 34.6668 16.2503 34.6668C16.8483 34.6668 17.3337 35.15 17.3337 35.7502V59.5835C17.3337 61.3753 18.7918 62.8335 20.5837 62.8335H44.417C46.2088 62.8335 47.667 61.3753 47.667 59.5835V35.7502C47.667 35.1522 48.1523 34.6668 48.7503 34.6668C49.3483 34.6668 49.8337 35.1522 49.8337 35.7502V59.5835C49.8337 62.5692 47.4048 65.0002 44.417 65.0002ZM48.7503 32.5002C48.1523 32.5002 47.667 32.0148 47.667 31.4168V18.4168C47.667 17.8188 48.1523 17.3335 48.7503 17.3335C49.3483 17.3335 49.8337 17.8188 49.8337 18.4168V31.4168C49.8337 32.017 49.3483 32.5002 48.7503 32.5002Z" fill="black"/>
<path d="M48.75 15.1667C48.152 15.1667 47.6667 14.6835 47.6667 14.0833V5.41667C47.6667 3.62483 46.2085 2.16667 44.4167 2.16667H20.5833C18.7915 2.16667 17.3333 3.62483 17.3333 5.41667V14.0833C17.3333 14.6835 16.848 15.1667 16.25 15.1667C15.652 15.1667 15.1667 14.6835 15.1667 14.0833V5.41667C15.1667 2.431 17.5955 0 20.5833 0H44.4167C47.4045 0 49.8333 2.431 49.8333 5.41667V14.0833C49.8333 14.6835 49.348 15.1667 48.75 15.1667ZM7.58333 23.8333H3.25C1.45817 23.8333 0 22.3752 0 20.5833V16.25C0 14.4582 1.45817 13 3.25 13H7.58333C9.37517 13 10.8333 14.4582 10.8333 16.25V20.5833C10.8333 22.3752 9.37517 23.8333 7.58333 23.8333ZM3.25 15.1667C2.65417 15.1667 2.16667 15.652 2.16667 16.25V20.5833C2.16667 21.1813 2.65417 21.6667 3.25 21.6667H7.58333C8.17917 21.6667 8.66667 21.1813 8.66667 20.5833V16.25C8.66667 15.652 8.17917 15.1667 7.58333 15.1667H3.25Z" fill="#FF0000"/>
<path d="M24.917 28.1667C24.6158 28.1667 24.3168 28.041 24.1023 27.7962L16.8418 19.5H9.75033C9.15233 19.5 8.66699 19.0147 8.66699 18.4167C8.66699 17.8187 9.15233 17.3334 9.75033 17.3334H17.3337C17.6478 17.3334 17.9425 17.4677 18.1483 17.7039L25.7317 26.3705C26.1282 26.8212 26.0805 27.5037 25.6298 27.9002C25.424 28.0779 25.1705 28.1667 24.917 28.1667ZM9.75033 41.1667H5.41699C3.62516 41.1667 2.16699 39.7085 2.16699 37.9167V33.5834C2.16699 31.7915 3.62516 30.3334 5.41699 30.3334H9.75033C11.5422 30.3334 13.0003 31.7915 13.0003 33.5834V37.9167C13.0003 39.7085 11.5422 41.1667 9.75033 41.1667ZM5.41699 32.5C4.82116 32.5 4.33366 32.9854 4.33366 33.5834V37.9167C4.33366 38.5147 4.82116 39 5.41699 39H9.75033C10.3462 39 10.8337 38.5147 10.8337 37.9167V33.5834C10.8337 32.9854 10.3462 32.5 9.75033 32.5H5.41699Z" fill="#FF0000"/>
<path d="M27.083 45.5002C26.7818 45.5002 26.4828 45.3745 26.2683 45.1297L19.0078 36.8335H11.9163C11.3183 36.8335 10.833 36.3482 10.833 35.7502C10.833 35.1522 11.3183 34.6668 11.9163 34.6668H19.4997C19.8138 34.6668 20.1085 34.8012 20.3143 35.0373L27.8977 43.704C28.2942 44.1547 28.2465 44.8372 27.7958 45.2337C27.59 45.4113 27.3365 45.5002 27.083 45.5002ZM59.583 41.1668H55.2497C53.4578 41.1668 51.9997 39.7087 51.9997 37.9168V33.5835C51.9997 31.7917 53.4578 30.3335 55.2497 30.3335H59.583C61.3748 30.3335 62.833 31.7917 62.833 33.5835V37.9168C62.833 39.7087 61.3748 41.1668 59.583 41.1668ZM55.2497 32.5002C54.6538 32.5002 54.1663 32.9855 54.1663 33.5835V37.9168C54.1663 38.5148 54.6538 39.0002 55.2497 39.0002H59.583C60.1788 39.0002 60.6663 38.5148 60.6663 37.9168V33.5835C60.6663 32.9855 60.1788 32.5002 59.583 32.5002H55.2497Z" fill="#FF0000"/>
<path d="M37.916 45.5C37.6625 45.5 37.409 45.4112 37.2032 45.2313C36.7525 44.837 36.707 44.1523 37.1014 43.7017L44.6847 35.035C44.8905 34.801 45.1852 34.6667 45.4994 34.6667H53.0827C53.6807 34.6667 54.166 35.152 54.166 35.75C54.166 36.348 53.6807 36.8333 53.0827 36.8333H45.9912L38.7307 45.1295C38.5162 45.3743 38.2172 45.5 37.916 45.5ZM61.7494 23.8333H57.416C55.6242 23.8333 54.166 22.3752 54.166 20.5833V16.25C54.166 14.4582 55.6242 13 57.416 13H61.7494C63.5412 13 64.9994 14.4582 64.9994 16.25V20.5833C64.9994 22.3752 63.5412 23.8333 61.7494 23.8333ZM57.416 15.1667C56.8202 15.1667 56.3327 15.652 56.3327 16.25V20.5833C56.3327 21.1813 56.8202 21.6667 57.416 21.6667H61.7494C62.3452 21.6667 62.8327 21.1813 62.8327 20.5833V16.25C62.8327 15.652 62.3452 15.1667 61.7494 15.1667H57.416Z" fill="#FF0000"/>
<path d="M40.083 28.1667C39.8295 28.1667 39.576 28.0779 39.3702 27.898C38.9195 27.5037 38.874 26.819 39.2684 26.3684L46.8517 17.7017C47.0575 17.4677 47.3522 17.3334 47.6664 17.3334H55.2497C55.8477 17.3334 56.333 17.8187 56.333 18.4167C56.333 19.0147 55.8477 19.5 55.2497 19.5H48.1582L40.8977 27.7962C40.6832 28.041 40.3842 28.1667 40.083 28.1667Z" fill="#FF0000"/>
</svg>
