<svg width="40" height="41" viewBox="0 0 40 41" fill="none" xmlns="http://www.w3.org/2000/svg">
<circle cx="20" cy="20.9951" r="20" fill="#FF0000"/>
<path d="M25.9614 18.5429C25.9546 18.0382 25.8602 17.5385 25.6821 17.0662C25.5278 16.6678 25.292 16.306 24.9899 16.0039C24.6878 15.7018 24.326 15.466 23.9276 15.3116C23.4614 15.1366 22.9688 15.042 22.4709 15.0318C21.8299 15.0031 21.6266 14.9951 19.9993 14.9951C18.3721 14.9951 18.1635 14.9951 17.5271 15.0318C17.0294 15.0421 16.5371 15.1367 16.0711 15.3116C15.6726 15.4659 15.3108 15.7016 15.0086 16.0038C14.7065 16.3059 14.4708 16.6677 14.3165 17.0662C14.1412 17.5321 14.0467 18.0245 14.0373 18.5222C14.0087 19.1639 14 19.3672 14 20.9945C14 22.6217 14 22.8296 14.0373 23.4667C14.0473 23.9651 14.1413 24.4569 14.3165 24.924C14.471 25.3224 14.7069 25.6841 15.0092 25.9861C15.3114 26.2881 15.6733 26.5237 16.0717 26.6779C16.5365 26.86 17.0289 26.9614 17.5278 26.9778C18.1695 27.0064 18.3727 27.0151 20 27.0151C21.6273 27.0151 21.8359 27.0151 22.4722 26.9778C22.9701 26.968 23.4627 26.8736 23.9289 26.6986C24.3272 26.544 24.6889 26.3082 24.991 26.0061C25.2931 25.704 25.5289 25.3423 25.6835 24.944C25.8587 24.4776 25.9527 23.9858 25.9627 23.4867C25.9913 22.8456 26 22.6424 26 21.0144C25.9987 19.3872 25.9987 19.1806 25.9614 18.5429V18.5429ZM19.9953 24.0718C18.2934 24.0718 16.9147 22.693 16.9147 20.9911C16.9147 19.2892 18.2934 17.9105 19.9953 17.9105C20.8124 17.9105 21.5959 18.2351 22.1737 18.8128C22.7514 19.3905 23.076 20.1741 23.076 20.9911C23.076 21.8082 22.7514 22.5917 22.1737 23.1695C21.5959 23.7472 20.8124 24.0718 19.9953 24.0718V24.0718ZM23.1986 18.5149C23.1042 18.515 23.0108 18.4965 22.9236 18.4604C22.8364 18.4243 22.7572 18.3714 22.6904 18.3047C22.6237 18.238 22.5708 18.1587 22.5347 18.0715C22.4987 17.9843 22.4801 17.8909 22.4802 17.7965C22.4802 17.7022 22.4988 17.6089 22.5349 17.5218C22.571 17.4347 22.6239 17.3555 22.6905 17.2888C22.7572 17.2222 22.8364 17.1693 22.9235 17.1332C23.0106 17.0971 23.104 17.0785 23.1982 17.0785C23.2925 17.0785 23.3859 17.0971 23.473 17.1332C23.5601 17.1693 23.6393 17.2222 23.706 17.2888C23.7726 17.3555 23.8255 17.4347 23.8616 17.5218C23.8977 17.6089 23.9163 17.7022 23.9163 17.7965C23.9163 18.1937 23.5951 18.5149 23.1986 18.5149Z" fill="white"/>
<path d="M19.9953 22.9925C21.1004 22.9925 21.9964 22.0965 21.9964 20.9913C21.9964 19.8862 21.1004 18.9902 19.9953 18.9902C18.8901 18.9902 17.9941 19.8862 17.9941 20.9913C17.9941 22.0965 18.8901 22.9925 19.9953 22.9925Z" fill="white"/>
</svg>
